<svg id="Outlines" xmlns="http://www.w3.org/2000/svg" viewBox="0 0 706.12 229.84"><defs><style>.cls-1{fill:none;}.cls-1,.cls-3{stroke:#e30613;stroke-miterlimit:10;}.cls-2,.cls-3{fill:#e30613;}.cls-3{stroke-width:0.5px;}</style></defs><path class="cls-1" d="M148.56,508.18" transform="translate(-147.8 -385.07)"/><path class="cls-2" d="M152.49,508.83c9.27-12.32,25.53-16.21,40-18.16,8.73-1.17,17.48-2.05,26.19-3.37s17.27-2.86,25.84-4.6c17.25-3.49,34.35-7.72,51.36-12.22,16-4.22,32.1-8.33,47.88-13.29,14.34-4.5,28.64-10.2,40.67-19.36,1.55-1.18,3.06-2.39,4.53-3.66a2.53,2.53,0,0,0,0-3.54,2.55,2.55,0,0,0-3.54,0c-11.34,9.8-25.27,15.92-39.39,20.58-15.6,5.15-31.61,9.16-47.47,13.39-17,4.54-34.09,8.84-51.32,12.45-8.64,1.81-17.32,3.44-26,4.83s-17.29,2.37-25.95,3.44c-15.5,1.91-32,5.17-43.46,16.74a41.77,41.77,0,0,0-3.61,4.25,2.52,2.52,0,0,0,.9,3.42,2.57,2.57,0,0,0,3.42-.9Z" transform="translate(-147.8 -385.07)"/><path class="cls-2" d="M389.63,433.3c37.56-29.43,85.69-44.35,133.26-43.17a202.21,202.21,0,0,1,69.72,14.17c25.39,10.11,48.63,24.76,73.49,36,25.75,11.66,53,17.85,80.82,22.2,29.36,4.59,58.84,8.51,88.27,12.71,3.14.45,6.55.64,9.54,1.78,2.1.8,5.52,3.48,3.89,6.15-1.26,2.06-4.65,1-6.45.5a65.19,65.19,0,0,0-8.1-2.12c-12.49-1.8-24.66,4.33-34,12.1-10.21,8.49-18.22,19.41-29,27.2-9.43,6.8-20.29,11.09-31.52,13.9-23.23,5.81-47.43,5.9-70.82,10.9-25,5.34-47.45,17.68-67.39,33.39-5,3.9-9.74,8-14.4,12.25-2.39,2.17,1.16,5.7,3.53,3.54,19.46-17.72,41.7-33.23,67-41.11,23.63-7.34,48.66-7.48,72.86-11.9,11.69-2.14,23.29-5.35,33.87-10.89,11.56-6,20.38-15.14,29.42-24.35s19.68-18.85,33.15-20.22A25.84,25.84,0,0,1,836,487c2.67.71,5.22,1.75,8,2.13,5.2.73,10.5-2.26,9.87-8.13-.69-6.48-6.91-9-12.58-9.92-7.52-1.16-15.07-2.16-22.61-3.24l-45.74-6.53c-28.79-4.12-57.88-8.07-85.45-17.72-26.68-9.34-50.77-24.4-76.19-36.5-22.92-10.91-46.86-18.35-72.16-20.94A217.57,217.57,0,0,0,466.9,391a211,211,0,0,0-66.48,28.41c-4.93,3.23-9.69,6.69-14.33,10.32-2.53,2,1,5.5,3.54,3.53Z" transform="translate(-147.8 -385.07)"/><path class="cls-2" d="M588.32,590.36a135.31,135.31,0,0,1-87.66,18.42c-28.2-3.79-53.84-17-78.19-31.07s-48.57-29.48-75.38-38.91c-14.91-5.25-30.32-7.72-45.95-9.61-16.87-2-33.52-4.18-49.66-9.72-29.29-10.05-59.77-27.62-91.75-18.94a58.23,58.23,0,0,0-10.27,3.91c-2.89,1.41-.36,5.72,2.53,4.31,29.82-14.55,62.87,2.37,90.94,12.93A174.87,174.87,0,0,0,266.62,529c8.36,1.88,16.87,3,25.38,4.09,16.15,2,32.31,3.72,47.91,8.59,27.14,8.46,51.43,23.73,75.83,37.91,24,14,49,27.56,76.58,32.86a140.42,140.42,0,0,0,88.78-12.36q5-2.51,9.75-5.42c2.74-1.67.23-6-2.53-4.31Z" transform="translate(-147.8 -385.07)"/><path class="cls-2" d="M203.65,505.27c32-.31,64.3-.67,95.82-7,14.53-2.93,29.49-7.16,44.38-4.31,6.56,1.26,13,3.84,18,8.29s8.36,10.14,10.83,16.19c5.84,14.29,7,30.5,16.05,43.41.92,1.31,3.09.06,2.16-1.26-8.24-11.76-9.82-26.38-14.57-39.6-2.23-6.21-5.14-12.25-9.49-17.26a36.82,36.82,0,0,0-16.32-10.62c-14.27-4.76-29.41-2-43.72,1.07-7.9,1.68-15.81,3.25-23.81,4.39s-16.19,1.95-24.32,2.54c-16.29,1.18-32.62,1.46-48.94,1.63l-6.09.06a1.25,1.25,0,0,0,0,2.5Z" transform="translate(-147.8 -385.07)"/><path class="cls-2" d="M367.2,531.36c-9.23-4.93-21.3-11.88-20.35-24.1.12-1.6-2.38-1.6-2.5,0-.45,5.87,2.27,11.48,6.19,15.7,4.28,4.61,9.92,7.64,15.4,10.56,1.42.76,2.68-1.4,1.26-2.16Z" transform="translate(-147.8 -385.07)"/><path class="cls-2" d="M651.85,494.43A29.25,29.25,0,0,1,662,486.18a54.73,54.73,0,0,1,12.75-4c11.43-2.43,23.16-1.8,34.75-1.44L781.77,483l40.87,1.26c1.61,0,1.61-2.45,0-2.5l-73.51-2.26-36.63-1.13c-11.88-.36-24-1.18-35.73.91a63.73,63.73,0,0,0-14.91,4.26,31,31,0,0,0-11.78,9.15c-1,1.25.77,3,1.77,1.77Z" transform="translate(-147.8 -385.07)"/><path class="cls-2" d="M656.15,533.47c7.33-1.56,16-3.83,19.22-11.46,1.71-4,.94-8.39.94-12.63,0-3.28.68-7.18,3.72-9a1.25,1.25,0,0,0-1.27-2.16c-2.84,1.73-4.24,4.8-4.72,8-.6,4.09.44,8.23-.24,12.29-1.45,8.65-11.06,11-18.32,12.57-1.57.34-.91,2.75.67,2.41Z" transform="translate(-147.8 -385.07)"/><path class="cls-2" d="M639.79,559.77c4.91-9.38,9.82-18.87,13-29a72.46,72.46,0,0,0,3.13-15.51,70.26,70.26,0,0,0-.73-16.32c-1.58-10.74-5-21.12-7-31.77s-2.31-21.45-5.86-31.63c-3.33-9.57-9.68-18.44-19.48-22a2.5,2.5,0,1,0-1.32,4.82c7.51,2.77,12.68,9.9,15.47,17.14,3.69,9.59,4.13,20,5.83,30.05,1.76,10.41,5,20.49,6.91,30.87a66.53,66.53,0,0,1-.81,29.84c-3,10.95-8.22,21-13.45,31-1.49,2.85,2.82,5.38,4.32,2.52Z" transform="translate(-147.8 -385.07)"/><path class="cls-2" d="M391.54,559.92c-5.85-5.42-8.06-13.32-8.93-21-1.06-9.33-.93-18.86-.92-28.22,0-11,.3-22,1-33,.65-10.26,2-20.36,5.39-30.11,3-8.74,7.31-18.12,15.05-23.66a2.57,2.57,0,0,0,.9-3.42,2.53,2.53,0,0,0-3.42-.9c-7.64,5.47-12.33,13.73-15.74,22.3a106.65,106.65,0,0,0-6.8,30.6c-1,11.36-1.29,22.81-1.38,34.21-.07,10-.19,20.15.7,30.13.86,9.67,3.21,19.77,10.6,26.62,2.36,2.18,5.9-1.35,3.54-3.54Z" transform="translate(-147.8 -385.07)"/><path class="cls-2" d="M489.62,510.6c-1.84-13.32-10.89-24.84-22.06-31.9A55.75,55.75,0,0,0,448.74,471a29.08,29.08,0,0,0-10.48-.27,25.6,25.6,0,0,0-9.73,4.13,90,90,0,0,0-8,6.16,49.06,49.06,0,0,0-7.09,7.1c-3.92,5-6.31,11.15-5.26,17.54a14.76,14.76,0,0,0,3.88,7.86,22.91,22.91,0,0,0,8,5,77.93,77.93,0,0,0,21.36,5.33,64.23,64.23,0,0,0,24.32-2.09c8.07-2.29,15.7-5.9,23.26-9.48,1.45-.69.19-2.85-1.26-2.16-12.56,5.94-25.32,11.63-39.48,11.6a72.54,72.54,0,0,1-20.42-3.14c-5.68-1.69-12.85-3.76-15.89-9.35-2.8-5.17-1.58-11.68,1.3-16.53,3.17-5.32,8.14-9.35,13-13.11a36.66,36.66,0,0,1,8.48-5.27,21.65,21.65,0,0,1,9.66-1.41c6.51.43,13,3,18.69,6.06,12.18,6.61,22.2,18.25,24.14,32.3.21,1.59,2.62.91,2.41-.67Z" transform="translate(-147.8 -385.07)"/><path class="cls-2" d="M412.63,489.8a47.48,47.48,0,0,0,7,28c.84,1.36,3,.11,2.16-1.26a45.08,45.08,0,0,1-6.67-26.71c.1-1.61-2.4-1.6-2.5,0Z" transform="translate(-147.8 -385.07)"/><path class="cls-2" d="M467.33,520.86a32.27,32.27,0,0,0,12.27-31.39c-.29-1.58-2.7-.91-2.41.66a29.63,29.63,0,0,1-11.13,28.57c-1.26,1,0,3.13,1.27,2.16Z" transform="translate(-147.8 -385.07)"/><ellipse class="cls-3" cx="296.77" cy="111.16" rx="20.12" ry="19.94"/><ellipse class="cls-3" cx="442.31" cy="107.81" rx="20.12" ry="19.94"/><path class="cls-2" d="M548.33,508.58c5.7-10.39,11.67-21.15,20.84-28.92a37.35,37.35,0,0,1,33.61-7.88,33.66,33.66,0,0,1,15.83,8.9c4.06,4.2,7.22,10.21,6,16.21S618.5,507,613.37,509.61a50.8,50.8,0,0,1-19.46,5.11c-15.84,1.19-31.37-3.24-46.32-7.93-1.54-.49-2.2,1.93-.67,2.41,14.19,4.45,28.84,8.62,43.86,8.18a58.49,58.49,0,0,0,21.49-4.49c5.53-2.39,11-6.23,13.61-11.87,5.73-12.62-5.78-25-16.65-29.65a39.64,39.64,0,0,0-36.75,2.76c-12.17,7.74-19.55,20.86-26.31,33.19-.77,1.41,1.39,2.67,2.16,1.26Z" transform="translate(-147.8 -385.07)"/><path class="cls-2" d="M553.65,495.88a18.22,18.22,0,0,0,8.25,17c1.36.87,2.62-1.3,1.26-2.16a15.77,15.77,0,0,1-7-14.88,1.26,1.26,0,0,0-1.25-1.25,1.28,1.28,0,0,0-1.25,1.25Z" transform="translate(-147.8 -385.07)"/><path class="cls-2" d="M613,512.43A34.6,34.6,0,0,0,610.66,472c-1-1.25-2.77.53-1.77,1.77a32,32,0,0,1,2,37.43c-.87,1.36,1.29,2.62,2.16,1.27Z" transform="translate(-147.8 -385.07)"/><path class="cls-2" d="M500.53,517.13a35.27,35.27,0,0,1-20.73,21.2c-.6.22-.34,1.19.26,1a36.37,36.37,0,0,0,21.43-21.9c.22-.61-.75-.87-1-.27Z" transform="translate(-147.8 -385.07)"/><path class="cls-2" d="M535.22,520.67c5.52,11.69,18,16.93,29.34,21.42.6.24.86-.73.27-1-11.06-4.4-23.34-9.51-28.74-21-.28-.58-1.14-.08-.87.5Z" transform="translate(-147.8 -385.07)"/><path class="cls-2" d="M548,499a38.64,38.64,0,0,1,11-21.36A37.67,37.67,0,0,1,581.92,467a38.55,38.55,0,0,1,14.72,1.49.5.5,0,0,0,.27-1,39.6,39.6,0,0,0-26.47,1.29,38.78,38.78,0,0,0-18.65,16.46,39.3,39.3,0,0,0-4.77,13.4c-.1.63.87.9,1,.26Z" transform="translate(-147.8 -385.07)"/><path class="cls-2" d="M547.06,493.66c.2-10.78,7.34-20.32,16.68-25.22,10.73-5.62,23.49-5.54,35-2.64a111.8,111.8,0,0,1,19.72,7.33c.58.27,1.09-.59.5-.87-11.64-5.42-24.19-9.91-37.22-9.38-11.38.47-22.68,4.88-29.7,14.15a28.57,28.57,0,0,0-6,16.63.5.5,0,0,0,1,0Z" transform="translate(-147.8 -385.07)"/><path class="cls-2" d="M545.92,480.68c4.34-8.61,12.37-14.68,21.34-17.88,10.42-3.72,21.71-3.37,32.38-.94a119.94,119.94,0,0,1,18.86,6.2c.6.24.86-.73.27-1-11.19-4.6-23.1-8.22-35.31-8.09-10,.1-20,3-28.08,9a35.09,35.09,0,0,0-10.32,12.16c-.29.57.57,1.08.86.51Z" transform="translate(-147.8 -385.07)"/><path class="cls-2" d="M479.85,486.66A42.33,42.33,0,0,0,457.68,469a41.69,41.69,0,0,0-43.07,10.61c-.45.46.26,1.17.71.7A41.21,41.21,0,0,1,441.44,468,40.69,40.69,0,0,1,479,487.17c.34.55,1.21,0,.87-.51Z" transform="translate(-147.8 -385.07)"/><path class="cls-2" d="M480.9,482.27A41.5,41.5,0,0,0,425.32,468a56.11,56.11,0,0,0-14.92,12.3c-.42.48.29,1.19.71.71,7.21-8.28,16.66-14.82,27.63-16.72A40.6,40.6,0,0,1,480,482.77c.34.54,1.21,0,.86-.5Z" transform="translate(-147.8 -385.07)"/><path class="cls-2" d="M484.87,477.86c-8.72-9.24-19.88-16.81-32.65-18.76a40.45,40.45,0,0,0-18.86,1.41c-5.8,1.93-10.6,5.49-15.16,9.46-5.15,4.49-10.2,9.41-16.74,11.8-.6.22-.35,1.19.26,1,11.06-4,17.67-14.77,28.17-19.77,12-5.7,26.18-3.75,37.55,2.42a67.52,67.52,0,0,1,16.72,13.17c.44.47,1.15-.24.71-.7Z" transform="translate(-147.8 -385.07)"/><path class="cls-2" d="M474,558.35c-5.92,3.53-13.05,6.54-20.09,5.62l.06-.49c7,.12,13.38-3.28,19.88-5.61l.15.48Z" transform="translate(-147.8 -385.07)"/><path class="cls-2" d="M467.32,564.43c-7.65,4-16.53,7.36-25.29,6.36l.06-.49c8.79.19,16.9-3.59,25.08-6.35l.15.48Z" transform="translate(-147.8 -385.07)"/><path class="cls-2" d="M465.41,567.68c-5,4.73-11.34,9.25-18.38,9.88l0-.5c6.9-1.42,12.34-6.12,18.17-9.8l.26.42Z" transform="translate(-147.8 -385.07)"/><path class="cls-2" d="M595.15,576.09c-6.79-1.05-14.26-3.3-19.07-8.48l.37-.34c5.35,4.58,12.39,6,18.88,8.35l-.18.47Z" transform="translate(-147.8 -385.07)"/><path class="cls-2" d="M586.11,576.5a56.63,56.63,0,0,1-12.53-3.94c-4-1.78-8-4-11-7.28l.36-.34c4.9,4.31,11.14,6.62,17.19,8.86,2,.76,4.07,1.43,6.18,2.24l-.2.46Z" transform="translate(-147.8 -385.07)"/><path class="cls-2" d="M582.57,577.8c-6.86.45-14.63-.11-20.46-4.12l.28-.41c6.22,3.3,13.4,3.15,20.25,4l-.07.5Z" transform="translate(-147.8 -385.07)"/><path class="cls-2" d="M481.58,555c8.36-2.69,17.29-3,25.94-4.1a50.43,50.43,0,0,0,5.12-.67c7.31-1,14.3,0,21.45.8,9.63,1.36,19.54,1.15,28.86,4.32A9.07,9.07,0,0,1,564,556a5.1,5.1,0,0,0,1,.09l-.15,2a6.23,6.23,0,0,1-1.59-.36c-.63-.29-.65-.55-1.13-.79-8.91-3.16-18.94-2.29-28.29-3.17-6.76-.37-13.93-1-20.5.2a42,42,0,0,1-5.27.88c-8.68,1-17.47,2.78-26.26,2.14l-.23-2Z" transform="translate(-147.8 -385.07)"/><path class="cls-2" d="M414.67,453.93c4.38-4.85,9.93-7.42,16.2-8.9,5.83-1.37,11.72-2.21,17.27-4.56,3-1.27,5.83-2.8,8.76-4.15a57.88,57.88,0,0,1,10.23-3.47c7.29-1.82,14.78-3.5,22.31-3.9a169.64,169.64,0,0,1,22,.72c7.47.57,14.91,1.05,22.41.94,7.66-.11,15.24-.68,22.89,0,3.61.31,7.21.73,10.81,1s7.47.19,11.2.42,7.35,1.31,11.06,1.85c3.36.5,6.94-.6,10.23.4,3.11.93,5.58,3.42,8,5.51a24.59,24.59,0,0,0,7.68,5c.61.22.87-.74.27-1-5.63-2.06-8.91-7.54-14.27-10-2.8-1.29-5.81-.89-8.8-.82-3.25.08-6.37-.84-9.54-1.42a68.46,68.46,0,0,0-10.22-.68c-3.82-.12-7.63-.49-11.43-.87-3.62-.36-7.25-.71-10.88-.83-3.87-.12-7.72.14-11.58.27A216.85,216.85,0,0,1,516,429c-7.48-.55-15-1.26-22.48-1.19a105,105,0,0,0-21.95,2.95,90.83,90.83,0,0,0-10.88,2.9,86.7,86.7,0,0,0-8.52,3.84,58.24,58.24,0,0,1-10.72,4.18c-3.22.84-6.51,1.41-9.76,2.13-6.81,1.51-12.94,4.12-17.69,9.4-.43.47.27,1.18.7.7Z" transform="translate(-147.8 -385.07)"/><path class="cls-2" d="M418,443.36c3.49-3.57,6.79-7.43,11.65-9.13,6.26-2.2,13.09-1.5,19.37-3.56,1.6-.53,3.09-1.28,4.64-1.9a48.45,48.45,0,0,1,5.51-1.78A81.09,81.09,0,0,1,470,425.05c3.6-.44,7.21-.75,10.81-1.16s7.24-1.14,10.89-1.44,7.07-.23,10.58-.56c3.71-.34,7.33-1.21,11.06-1.43s7.4-.16,11.09-.48a29.76,29.76,0,0,1,5.08-.15c2,.16,4,.52,6,.66a15.78,15.78,0,0,0,4.65-.23,18.88,18.88,0,0,0,4.42-1.87c2.81-1.44,6-2.4,9.13-1.6,2.61.65,4.9,2.23,7.33,3.31a45.82,45.82,0,0,0,9.24,2.8c6.88,1.45,13.94,2.29,20.91,3.19,3,.39,6.06.78,9,1.47,2.54.59,5.39,1.36,7.3,3.25a.5.5,0,0,0,.7-.7,13.46,13.46,0,0,0-5.84-3,55.94,55.94,0,0,0-8.23-1.61c-6-.83-12-1.6-18-2.54a80,80,0,0,1-10.48-2.22,56.41,56.41,0,0,1-8.42-3.63,12.64,12.64,0,0,0-7.27-1.5c-3.21.38-5.62,2.09-8.55,3.23-3.66,1.44-7.65.4-11.42.05s-7.7.29-11.53.4a77.15,77.15,0,0,0-10.73.8,85.17,85.17,0,0,1-11.61,1.15,91.13,91.13,0,0,0-10.44,1c-3.86.58-7.75.94-11.63,1.34-7.13.75-14.36,1.65-21.05,4.38a46,46,0,0,1-5.9,2.21,44.65,44.65,0,0,1-6.09,1,58.07,58.07,0,0,0-10.56,1.76c-5.57,1.66-9.2,5.69-13.14,9.73-.45.46.26,1.17.71.7Z" transform="translate(-147.8 -385.07)"/><path class="cls-2" d="M415.11,436.89c6.95-2.69,12.4-7.85,18.63-11.77s12.18-7.59,19.22-9.53c3.59-1,7.17-2.08,10.79-2.95a91.91,91.91,0,0,1,12.58-1.84c4.07-.41,8.14-.91,12.2-1.44a117.57,117.57,0,0,1,12.7-1.34c8.53-.2,17,.91,25.58.54a30.28,30.28,0,0,1,5.63.13c1.68.23,3.34.62,5,.89a43.37,43.37,0,0,0,11.55-.12c4-.46,8.53-1.16,12.52,0,2.71.77,4.55,3,7.12,4.06,3.53,1.45,7.49,1,11.15,1.84,1.55.36,3.06.94,4.6,1.35s3,.76,4.53,1.11c3.28.75,6.58,1.46,9.79,2.47,2.92.91,5.91,2,8.13,4.22s4,5.22,6.6,7.22c2.24,1.71,5,2.37,7.48,3.72a5.84,5.84,0,0,1,3,3.09c.21.6,1.18.34,1-.27-.88-2.52-3.28-3.72-5.59-4.71a38.41,38.41,0,0,1-4.08-1.86,15,15,0,0,1-3.83-3.41c-2-2.4-3.79-5-6.58-6.59a36.07,36.07,0,0,0-8.61-3.18c-3.25-.86-6.55-1.54-9.81-2.34s-6.49-2-9.92-2.33a37.51,37.51,0,0,1-6.07-.8,12.51,12.51,0,0,1-4.11-2.1,16.9,16.9,0,0,0-3.31-2.05,15.26,15.26,0,0,0-5.4-1c-4.17-.15-8.3.62-12.44.93a45.78,45.78,0,0,1-11.38-1c-3.88-.66-7.75-.23-11.65-.22-4.3,0-8.59-.28-12.89-.49a82.16,82.16,0,0,0-13.31.21c-4.21.49-8.41,1.14-12.62,1.65s-8.59.81-12.86,1.35a80.4,80.4,0,0,0-11.26,2.44c-3.7,1-7.49,1.94-11.08,3.33A59.25,59.25,0,0,0,439,420.7c-3.17,1.9-6.34,3.84-9.35,6s-6.16,4.62-9.47,6.6a34.05,34.05,0,0,1-5.31,2.63c-.6.23-.34,1.2.26,1Z" transform="translate(-147.8 -385.07)"/><path class="cls-2" d="M506.6,523.75c4.32-1,7.83,1.67,11.74,2.93a6,6,0,0,0,4.3-.06c1.85-.72,3.47-1.93,5.33-2.66,2.89-1.12,5.67-2.05,6.79-5.24a6.61,6.61,0,0,0-.23-5.3c-1.88-3.63-6.73-5-10.44-5.63-4-.68-8.66-.93-12.6.36a11.55,11.55,0,0,0-7.11,6.18c-1.41,3.3-1.28,7.1,1.83,9.31.53.38,1-.49.51-.86-3-2.13-2.6-6.15-.94-9a10.8,10.8,0,0,1,6.37-4.75,26.72,26.72,0,0,1,11.19-.32c3.43.53,7.85,1.58,10,4.63a5.38,5.38,0,0,1,.63,4.71c-1,3.34-3.93,4-6.77,5.2-1.82.78-3.44,2-5.34,2.64s-3.5-.18-5.13-.89c-3.35-1.45-6.62-3-10.36-2.19-.62.15-.36,1.11.27,1Z" transform="translate(-147.8 -385.07)"/><path class="cls-2" d="M506.26,523.45c.37,1.94,2.91,2.38,4.49,2.8a18.83,18.83,0,0,0,4.33.89c.86,0,1.72,0,2.59,0a8.24,8.24,0,0,0,1.92-.08c.63-.13.36-1.1-.27-1a7,7,0,0,1-1.65,0c-.74,0-1.48,0-2.22,0a16.56,16.56,0,0,1-4.23-.8c-1.23-.35-3.7-.61-4-2.16-.12-.63-1.08-.36-1,.26Z" transform="translate(-147.8 -385.07)"/><path class="cls-2" d="M522.21,526.85a11.7,11.7,0,0,0,2-.17c.7-.09,1.4-.13,2.1-.22a7.83,7.83,0,0,0,3.39-1.28,15.6,15.6,0,0,0,2.52-2.21,4.67,4.67,0,0,0,1.59-2.51c.08-.64-.92-.63-1,0s-1,1.49-1.51,2a12.48,12.48,0,0,1-2.39,2,7.2,7.2,0,0,1-3.09,1,28.71,28.71,0,0,1-3.57.33c-.64,0-.64,1,0,1Z" transform="translate(-147.8 -385.07)"/></svg>