<svg id="Outlines" xmlns="http://www.w3.org/2000/svg" viewBox="0 0 391.9 502.29"><defs><style>.cls-1{fill:none;}.cls-1,.cls-3,.cls-5{stroke:#e30613;}.cls-1,.cls-3,.cls-4,.cls-5{stroke-linecap:round;stroke-linejoin:round;}.cls-1,.cls-3{stroke-width:4px;}.cls-2,.cls-3,.cls-5{fill:#e30613;}.cls-4{fill:#fff;stroke:#fff;}.cls-4,.cls-5{stroke-width:2px;}.cls-6{fill:#1d1d1b;}</style></defs><path class="cls-1" d="M639,544.63c-.59-18.22-1.46-33.95-1.46-43.31,0-106.7-56.2-147.19-137.47-146.32-83.25.9-150.76,69.09-150.76,154.3a158.17,158.17,0,0,0,3.24,31.92v0c-1.32,24.53-3,49.49,1.44,72.43,6.75,34.85,28,65.35,49.56,92s52.72,45,85.11,44.39c25.83-.48,50.41-12.63,72.1-28,21-15,40.32-33.43,54.26-56.33,21.44-35.22,20.76-78.82,23.87-121.63Z" transform="translate(-304.03 -249.77)"/><path class="cls-1" d="M349.61,500c-4.21-16-10.15-26.26-16-25.8-9.14.7-14.49,27.86-11.94,60.66s10.13,49.38,19.28,48.67c3.32-.27,8.05,5.43,10.18-.78" transform="translate(-304.03 -249.77)"/><path class="cls-2" d="M341.92,525.21c-7.32-8.83-12.15-19.83-5.61-30.57a2.05,2.05,0,1,1,3.18,2.43,9.1,9.1,0,0,0-3,6.08c-.88,7.24,3.5,14.26,8.34,19.33a2,2,0,1,1-2.94,2.73Z" transform="translate(-304.03 -249.77)"/><path class="cls-2" d="M350.12,567.59c-10.7-4.48-20-11.86-19.18-24.54A2.05,2.05,0,1,1,335,543c-.24,1.44-.91,2.7-.72,4.23a12.22,12.22,0,0,0,.76,3.36c2.59,6.82,9.73,11,16.37,13.24a2,2,0,1,1-1.33,3.77Z" transform="translate(-304.03 -249.77)"/><path class="cls-1" d="M349,509.8c-4.71-13.66-10.7-22.57-15.51-21.94a5.08,5.08,0,0,0-3.21,2.05" transform="translate(-304.03 -249.77)"/><path class="cls-1" d="M636.86,596.47c2,6.21,6.49.51,9.64.78,8.66.72,15.83-15.86,18.26-48.66s-2.65-60-11.31-60.67c-5.5-.45-11.13,9.85-15.12,25.81" transform="translate(-304.03 -249.77)"/><path class="cls-2" d="M642.72,536.23c5.23-5.76,9.76-14,7.39-21.92a8.1,8.1,0,0,0-2.31-3.58,2.05,2.05,0,0,1,2.68-3.11c7,10.53,2.39,22.21-4.76,31.25a2,2,0,1,1-3-2.64Z" transform="translate(-304.03 -249.77)"/><path class="cls-2" d="M636.52,577.54c6.45-2.29,13.24-6.63,15.54-13.38a9.41,9.41,0,0,0,.12-6.65,2.05,2.05,0,1,1,4-.75,28.55,28.55,0,0,1-1,8.4c-2.64,7.89-9.91,12.87-17.19,16.12a2,2,0,1,1-1.39-3.74Z" transform="translate(-304.03 -249.77)"/><path class="cls-1" d="M638.88,523.51c4.46-13.67,10.13-22.58,14.69-21.95a4.78,4.78,0,0,1,3,2.05" transform="translate(-304.03 -249.77)"/><path class="cls-2" d="M409.51,515.75c-1.26-.17-2.64-1.36-2.11-2.9a2.62,2.62,0,0,1,1.2-1.36,52,52,0,0,1,6.5-2.59c10.28-3.43,21.55-5.08,32.24-2.73a68.56,68.56,0,0,1,22.28,10.06,1.53,1.53,0,0,1-.4,2.72c-9.94,3.18-20.1,6.33-30.69,5.83a106.83,106.83,0,0,1-15.39-2.6c-4.18-1.09-8.48-2.27-12.22-4.61-1.61-1-4.48-3.43-2.32-5.27a2,2,0,0,1,2.54.17,18.1,18.1,0,0,0,1.34,1.29c3.41,2.39,7.6,3.49,11.63,4.65a102.88,102.88,0,0,0,14.78,2.76c9.9.6,19.9-2.31,29.32-5.15l-.4,2.73a71.52,71.52,0,0,0-13.7-7.48c-9.64-4.29-20.43-4.25-30.61-2-4.34,1.12-9.37,1.92-12.81,4.95-.06.08-.11.17,0,.13a.77.77,0,0,0,.25-.39,1.67,1.67,0,0,0-.43-1.69,2,2,0,0,0-.56-.38c-.08,0-.06-.06-.07-.08a2,2,0,0,1-.34,4Z" transform="translate(-304.03 -249.77)"/><path class="cls-2" d="M535.83,522.43c-.46-.43-.76-.41-1.36-1A1.85,1.85,0,0,1,534,520a2.2,2.2,0,0,1,.49-1.13,9.38,9.38,0,0,1,3-2,57.33,57.33,0,0,1,11.73-3.78c8-1.67,16.47-2.42,24.52-.58a71,71,0,0,1,22.46,10,2,2,0,0,1-.51,3.52c-10,3-20.24,5.9-30.82,5.26a95,95,0,0,1-22.82-5.16,22.41,22.41,0,0,1-5.47-2.89c-.73-.54-1.11-1.2-2.05-1.54l-.93-.35a3.44,3.44,0,1,1,4.41-2c-.53.95.3,1.26,1.2,1.91,3.37,2.06,7.29,3.13,11.14,4.16A98.36,98.36,0,0,0,565.2,528c9.9.45,19.85-2.65,29.19-5.71l-.52,3.51a69.75,69.75,0,0,0-13.56-7.54c-12-5.33-25.76-4.09-38,0a22.78,22.78,0,0,0-5.58,2.58.86.86,0,0,0,.15-.3,1.41,1.41,0,0,0-.33-1.36c-.23-.27-.39-.32-.4-.41s0-.16,0-.29a2,2,0,0,1-.34,4Z" transform="translate(-304.03 -249.77)"/><path class="cls-2" d="M465.54,504.13a5,5,0,0,0-1.4-1.39,24.15,24.15,0,0,0-4-2.13,83.65,83.65,0,0,0-37.19-5.4,52,52,0,0,0-14.49,3.29,2,2,0,1,1-1.45-3.73c16.45-6.18,42.58-3.27,57.78,5.34,1.3.88,2.75,1.9,3.18,3.52a1.23,1.23,0,1,1-2.4.5Z" transform="translate(-304.03 -249.77)"/><path class="cls-2" d="M534.31,507.54a21.23,21.23,0,0,1,7.45-4.79c8-3.3,17-3.76,25.61-3.46a2,2,0,1,1-.32,4c-2.18-.24-6.07-.5-8.26-.55-7.91,0-16.87.7-23.2,5.91a.84.84,0,0,1-1.28-1.09Z" transform="translate(-304.03 -249.77)"/><path class="cls-2" d="M405.65,525.9c8.05,6.63,21.57,6.35,31.46,5.36a2,2,0,1,1,.46,4h-.14l-4.32.09c-7.18-.07-14.59-.78-21.28-3.55a21.29,21.29,0,0,1-7.46-4.8.84.84,0,0,1,1.28-1.09Z" transform="translate(-304.03 -249.77)"/><path class="cls-2" d="M558,537c8,6.63,21.57,6.35,31.46,5.36a2,2,0,1,1,.46,4h-.14l-4.32.09c-7.18-.07-14.59-.78-21.28-3.55a21.29,21.29,0,0,1-7.46-4.8A.84.84,0,0,1,558,537Z" transform="translate(-304.03 -249.77)"/><ellipse class="cls-3" cx="134.81" cy="265.68" rx="8.42" ry="7.3"/><ellipse class="cls-3" cx="257.19" cy="271.23" rx="8.42" ry="7.3"/><path class="cls-4" d="M442.83,513.06l.74.32a.8.8,0,0,1-1.05.42.79.79,0,0,1-.42-1,.8.8,0,0,1,1-.43.82.82,0,0,1,.47.92Z" transform="translate(-304.03 -249.77)"/><path class="cls-5" d="M491.05,492.16s4-13.23-9.17-16.73c-7.35-1.95-9,3.44-9,3.44s-43.4-15.61-44.5-12.9c-1,2.5-1.77,8.72-1.77,8.72s-18.76-7.69-21.48-5.15-1.79.81-5.77,5.65-14.65,8.56-9.1,9.05,30.61-4.48,45.66.44,40.9,6.26,44.67,7.37S491.05,492.16,491.05,492.16Z" transform="translate(-304.03 -249.77)"/><path class="cls-5" d="M525.69,499.54s-3.31-16.5,10.22-18.43S539,485,539,485s44.57-11.82,47.22-12.33,1.19,8.82,1.19,8.82,19.23-6.44,21.78-3.73,1.73.93,5.38,6,14.06,9.5,8.49,9.63-30.25-6.48-45.59-2.56-46.05,2.71-48.77,5.55S525.69,499.54,525.69,499.54Z" transform="translate(-304.03 -249.77)"/><path class="cls-4" d="M556.5,519.46l.74.32a.81.81,0,0,1-1,.42.79.79,0,0,1-.42-1.05.8.8,0,0,1,1.05-.43.82.82,0,0,1,.47.92Z" transform="translate(-304.03 -249.77)"/><path class="cls-2" d="M392.42,549a73.83,73.83,0,0,1,22.27-10.63.25.25,0,0,0-.13-.49,74.52,74.52,0,0,0-22.39,10.69c-.26.18,0,.61.25.43Z" transform="translate(-304.03 -249.77)"/><path class="cls-2" d="M414.45,538.13a25.52,25.52,0,0,0-7.29,6.32,23.72,23.72,0,0,0-2.54,3.95,5.17,5.17,0,0,0-.57,4.27,2.53,2.53,0,0,0,4.83-.19c.92-2.63-1.45-5.54-3.38-7.05a11.43,11.43,0,0,0-8.84-2.29c-.32.05-.18.54.13.48,4.57-.74,10.09,1.85,11.56,6.46.44,1.36.16,3.25-1.4,3.76s-2.76-1.4-2.66-2.82a9.16,9.16,0,0,1,1.62-3.91,26.14,26.14,0,0,1,2.24-3.09,25.14,25.14,0,0,1,6.56-5.46.25.25,0,0,0-.26-.43Z" transform="translate(-304.03 -249.77)"/><path class="cls-2" d="M401.13,540.08a21,21,0,0,1,12.63-1.27c.31.06.45-.42.13-.49a21.52,21.52,0,0,0-13,1.33c-.29.12,0,.55.25.43Z" transform="translate(-304.03 -249.77)"/><path class="cls-2" d="M413.83,544.92c-1.66,0-4.6.48-4.23,2.84.31,2,2.92,2.41,4.53,2.51a15.71,15.71,0,0,0,13.08-5.69c1-1.23,1.45-3.57-.78-3.64a7.11,7.11,0,0,0-3.1,1.08,29.77,29.77,0,0,0-3.78,2.3,23.36,23.36,0,0,0-6,5.76c-1.13,1.71-1.53,4.26.37,5.6,2.35,1.67,5.24.11,7.39-1.1a58.57,58.57,0,0,0,8.71-6l-.35-.36c-1.8,1.78-4,3.92-5,6.25-.59,1.28-.42,3,1.27,3.18,1.88.19,3.73-1.6,5-2.78a19.77,19.77,0,0,0,4.27-6l-.45-.2c-.54,2.46-4.05,5.36-2.1,8a2.35,2.35,0,0,0,2.9.64c1.48-.65,2.26-2.3,3.06-3.59,1.34-2.16,4.79-6.05,2.7-8.72-1.39-1.79-4.4-.56-3.49,1.75.55,1.39,2,1.82,3.38,1.89,2.42.14,4.9,0,7.33-.09l-.07-.5c-2,.44-4.31,1-5.57,2.72a3.8,3.8,0,0,0-.21,4.35c1.07,1.4,3,1.18,4.32.22,1.85-1.39,2-3.91,2.13-6a.25.25,0,0,0-.47-.13c-.83,1.55-1.74,3.38-.93,5.13a2.52,2.52,0,0,0,2.83,1.51c3.55-.72,5.07-6,5.46-9a.25.25,0,0,0-.42-.17c-1.09,1.27-2.33,2.71-2.44,4.47a3.34,3.34,0,0,0,1.81,3.3c1.56.64,3.09-.57,4.14-1.59a25.15,25.15,0,0,0,3.88-5.34l-.45-.2a62.73,62.73,0,0,1-7.52,13.24,39.19,39.19,0,0,1-4.95,5.8c-1.78,1.6-5.84,3.17-7-.07-.91-2.55,1.18-4.81,3.3-5.83a49,49,0,0,1,7.52-2.38l4-1.16a10.27,10.27,0,0,1,3.86-.71c2.06.23,2.38,2.31,1.56,3.9a16.54,16.54,0,0,1-2.37,3.21c-1.91,2.13-5.64,4.34-8.13,1.72a2.8,2.8,0,0,1,.53-4.48,2.72,2.72,0,0,1,3.95,2.42c0,.32.52.32.5,0a3.23,3.23,0,0,0-4.7-2.85c-2.34,1.29-2.05,4.33,0,5.78,2.5,1.79,5.73.28,7.66-1.63,1.64-1.63,4.95-5.16,3-7.61-1.79-2.26-6-.22-8.09.38l-6.11,1.78a15.76,15.76,0,0,0-4.59,1.88c-1.91,1.29-3.36,4-2.13,6.2,1.36,2.48,4.69,2,6.64.6a22.23,22.23,0,0,0,3.93-4.06c1.27-1.53,2.47-3.13,3.59-4.78a62.8,62.8,0,0,0,6.05-11.21c.11-.27-.32-.43-.46-.2A35.35,35.35,0,0,1,460,551a8,8,0,0,1-3.34,2.84c-1.84.59-3.15-1-3-2.79s1.3-3,2.29-4.12l-.43-.18c-.34,2.62-1.31,5.66-3.29,7.52-1.27,1.19-3.46,1.6-4.15-.46-.52-1.54.3-3.08,1-4.42l-.46-.12c-.09,1.74-.16,3.83-1.43,5.18s-3.79,1.74-4.48-.37c-1.15-3.59,3.29-5,5.87-5.58a.25.25,0,0,0-.06-.49l-4.76.08c-1.43,0-3.33.3-4.6-.51-.88-.56-1.58-2.15-.39-2.84s2.27.36,2.55,1.36c.46,1.7-.67,3.3-1.51,4.67s-1.63,2.68-2.48,4-3.21,3.62-4.45,1.27,1.84-5,2.34-7.32c.06-.27-.33-.47-.46-.2a17.91,17.91,0,0,1-6.73,8c-.89.52-2.7,1.23-3.17-.33-.29-1,.56-2.08,1.08-2.81a36.56,36.56,0,0,1,4.14-4.82c.23-.23-.11-.56-.35-.36a48.86,48.86,0,0,1-10.57,7c-2.08,1-5.65,1.22-6-1.85-.25-2.3,1.69-4.17,3.2-5.65a29.53,29.53,0,0,1,4.55-3.64c.76-.5,1.55-1,2.36-1.39a6.85,6.85,0,0,1,2.92-1.17,2.34,2.34,0,0,1,1.47,1.07,2.63,2.63,0,0,1-.41,1.19,7.3,7.3,0,0,1-.87,1.12,15,15,0,0,1-2.23,2,15.88,15.88,0,0,1-4.92,2.37,14.55,14.55,0,0,1-6.12.44c-1-.16-2.56-.6-2.91-1.75-.64-2.11,2.32-2.47,3.69-2.49a.25.25,0,0,0,0-.5Z" transform="translate(-304.03 -249.77)"/><path class="cls-2" d="M460.85,552.54a13.56,13.56,0,0,0,9-6.4l-.46-.19c-.46,2-.82,4-1.39,5.93a2.34,2.34,0,0,1-1.75,1.85,5.51,5.51,0,0,1-2.91-.45c-.31-.1-.44.38-.14.48a6.24,6.24,0,0,0,3,.49,2.62,2.62,0,0,0,2.05-1.52,15.46,15.46,0,0,0,.81-3l.84-3.65a.25.25,0,0,0-.45-.19,13.12,13.12,0,0,1-8.73,6.17c-.31.06-.18.54.14.48Z" transform="translate(-304.03 -249.77)"/><path class="cls-2" d="M537.49,567.25a10.76,10.76,0,0,0,12.7,3.17,10.29,10.29,0,0,0,5.07-4.71c.72-1.52.89-3.78-.93-4.58s-4.13.79-5.51,2a16.38,16.38,0,0,0-4.62,6.16c-.81,2.07-.41,4.28,1.65,5.38s4.71.42,6.69-.63c5.65-3,7.86-9.48,9.7-15.18.1-.3-.38-.44-.48-.13-1.36,4.19-2.76,8.56-5.76,11.9a12.86,12.86,0,0,1-5,3.56c-2.18.81-5.27.91-6.44-1.53-1-2.19.84-4.91,2.14-6.59a13.54,13.54,0,0,1,4.92-4.23c1.22-.53,2.75-.65,3.45.72a3.7,3.7,0,0,1-.39,3.21,9.91,9.91,0,0,1-4.25,4,10.26,10.26,0,0,1-12.58-2.87c-.2-.25-.56.11-.36.36Z" transform="translate(-304.03 -249.77)"/><path class="cls-2" d="M566,559.75l-20.81-4.17c-2.42-.49-5.4-1.31-7.69.06a3.86,3.86,0,0,0-1.83,4.81c.13.3.56,0,.43-.25a3.22,3.22,0,0,1,1.13-3.75,5.57,5.57,0,0,1,3.93-1,58,58,0,0,1,8.25,1.5l16.46,3.3c.31.06.45-.42.13-.48Z" transform="translate(-304.03 -249.77)"/><path class="cls-2" d="M566.89,567.93l-2.71,5.82c-.41.89-1.6,3-.13,3.56.7.28,1.43-.2,2-.59.71-.52,1.4-1.06,2.07-1.63a36.35,36.35,0,0,0,3.84-3.81,35.76,35.76,0,0,0,3.58-5c.17-.29-.24-.51-.43-.26a18.78,18.78,0,0,0-3.59,10.28c0,.32.48.32.5,0a18.3,18.3,0,0,1,3.52-10l-.43-.26a34.5,34.5,0,0,1-7.71,9,9.37,9.37,0,0,1-2.48,1.77c-.78.27-1.15-.3-1-1a5.65,5.65,0,0,1,.55-1.41l2.89-6.22c.14-.29-.29-.54-.43-.25Z" transform="translate(-304.03 -249.77)"/><path class="cls-2" d="M574,569.05a9.77,9.77,0,0,0,5.45-2.33,13.76,13.76,0,0,0,1.06-1.1c.61-.68,1.18-1.38,2.16-1.16,2.28.51.52,3.15-.36,4.15a.25.25,0,0,0,.24.42,42.77,42.77,0,0,0,6.57-1.46c.82-.31,1.64-1.05,1.22-2a2.24,2.24,0,0,0-2.44-1A4.14,4.14,0,0,0,585,567a4,4,0,0,0,2.78,5.59c3.57.86,4.74-2.65,6.58-4.85a3.67,3.67,0,0,1,3.79-1.48,3.57,3.57,0,0,0,2.24-.07c1.59-.76,1.85-2.68,2-4.23,0-.3-.4-.31-.49-.07l-2.22,5.89a44.74,44.74,0,0,1-2.23,5.69c-.57,1.05-1.65,2.17-3,1.9a2.65,2.65,0,0,1-1.83-2c-.53-2,.86-3.8,2-5.28.19-.25-.24-.5-.43-.25-1.19,1.6-2.58,3.56-2,5.66a2.86,2.86,0,0,0,3.48,2.28c2.1-.64,2.75-3.11,3.43-4.92l3.33-8.84-.49-.06a5.47,5.47,0,0,1-1,3.22c-.9,1-1.87.7-3,.52a3.49,3.49,0,0,0-2.79.66c-2.26,1.64-2.93,5.79-6.19,5.86a3.59,3.59,0,0,1-2.48-6.32,2.72,2.72,0,0,1,2.56-.73,1,1,0,0,1,.06,1.9,3.12,3.12,0,0,1-.91.29c-1.9.47-3.85.82-5.77,1.23l.24.42c.81-.92,1.73-2,1.6-3.31a2,2,0,0,0-1.57-1.88c-1.35-.19-2.23,1.22-3,2.05a9.16,9.16,0,0,1-5.66,2.72c-.32,0-.32.53,0,.5Z" transform="translate(-304.03 -249.77)"/><path class="cls-2" d="M597.16,574.73a2.63,2.63,0,0,0,1.52,1.61,2.6,2.6,0,0,0,2.37-.29c.26-.18,0-.62-.25-.43a2.05,2.05,0,0,1-3.15-1c-.11-.3-.59-.17-.49.13Z" transform="translate(-304.03 -249.77)"/><path class="cls-2" d="M570.06,563.9a.66.66,0,0,1-1.1-.11c-.24-.47.19-.92.44-1.28l1.58-2.28,3.15-4.57c.18-.26-.25-.51-.43-.25l-4.24,6.13c-.47.68-1.42,1.61-.94,2.5a1.17,1.17,0,0,0,1.9.21c.22-.24-.14-.59-.36-.35Z" transform="translate(-304.03 -249.77)"/><path class="cls-2" d="M571.2,554.91c1.53-1.69,4-2.9,6.19-1.6a3,3,0,0,1,1.55,2.65,4.19,4.19,0,0,1-1.72,3,11.8,11.8,0,0,1-4,1.75c-.31.09-.18.58.13.48,2.52-.74,5.74-1.91,6.1-5,.3-2.58-2.35-4.3-4.69-4a6.54,6.54,0,0,0-3.88,2.25c-.21.24.14.59.35.35Z" transform="translate(-304.03 -249.77)"/><path class="cls-6" d="M383.52,531.73a12.61,12.61,0,0,0,4.31-4.31.25.25,0,0,0-.43-.26,12.12,12.12,0,0,1-4.13,4.14.25.25,0,0,0,.25.43Z" transform="translate(-304.03 -249.77)"/><path class="cls-6" d="M384.3,527.73l2.33,3.39c.18.26.61,0,.43-.26l-2.33-3.38c-.18-.27-.61,0-.43.25Z" transform="translate(-304.03 -249.77)"/><path class="cls-2" d="M390.5,530.55l3.51-2.09a.25.25,0,0,0-.25-.43l-3.52,2.09a.25.25,0,0,0,.26.43Z" transform="translate(-304.03 -249.77)"/><path class="cls-2" d="M389.16,528l4.11,2.72c.27.18.52-.25.26-.43l-4.12-2.72c-.27-.18-.52.26-.25.43Z" transform="translate(-304.03 -249.77)"/><path class="cls-2" d="M384.39,533.63c.1,1.88,2.38,2,3.77,1.74a7.57,7.57,0,0,0,4.36-2.45c.21-.24-.14-.59-.36-.35a7.18,7.18,0,0,1-3.54,2.19,6.25,6.25,0,0,1-2.06.2c-.75-.07-1.62-.47-1.67-1.33,0-.32-.51-.32-.5,0Z" transform="translate(-304.03 -249.77)"/><path class="cls-2" d="M384,547.92a18.37,18.37,0,0,1-.18-8.75l-.42.11a12.62,12.62,0,0,1,3,6.17.26.26,0,0,0,.42.11l7-6-.42-.17a10.11,10.11,0,0,1-5.1,7.91c-.17.1-.15.43.06.46,3.07.48,2.06,4.32,1.49,6.31-.48,1.66-1,5.65-3.39,5.5-3.18-.2-2.57-4.37-2.18-6.41a11.32,11.32,0,0,0-.45-6.39c-.11-.3-.59-.17-.48.13a10.3,10.3,0,0,1,.55,5.55,15,15,0,0,0-.46,4.27c.24,1.95,2.11,4.2,4.25,3.08a3.93,3.93,0,0,0,1.68-2.33c.53-1.47.92-3,1.32-4.54.54-2.06.52-5.23-2.19-5.65l.06.46a10.68,10.68,0,0,0,5.34-8.35c0-.24-.28-.31-.43-.18l-7,6,.41.11a13.11,13.11,0,0,0-3.15-6.39.26.26,0,0,0-.42.11,19.15,19.15,0,0,0,.19,9,.25.25,0,0,0,.48-.14Z" transform="translate(-304.03 -249.77)"/><path class="cls-2" d="M382,454.31c-.17,1.64.15,4.23,2.45,3.79s3.92-3.26,4.85-5c.79-1.51,2.16-4.3,1.22-6-1.05-1.91-3-.14-3.65,1.09-1.67,3.15-4.57,11.83,1.22,12.32a2.38,2.38,0,0,1,2.44,1.55,8.12,8.12,0,0,1,.38,2.08A19.51,19.51,0,0,1,387.36,477a4.63,4.63,0,0,1-1.94,1.81c-1.52.59-2.23-.58-2.22-2a35.85,35.85,0,0,1,.7-6.11c.27-1.46,1-6.1,3.48-4.69,2.17,1.21.56,4-.43,5.37-.18.26.25.51.43.25,1.16-1.62,2.54-4.23.55-5.84-1.61-1.3-3.29.28-3.83,1.82a31.42,31.42,0,0,0-1.4,9.2,2.46,2.46,0,0,0,.78,2.28,2.28,2.28,0,0,0,2.31.09c2-1,3.38-3.94,4.2-5.91a20.15,20.15,0,0,0,1.52-8c0-1.84-.12-4.78-2.38-5.26a17.44,17.44,0,0,1-2-.23,2.83,2.83,0,0,1-1.74-2.19,12.07,12.07,0,0,1,.57-5.61,19.28,19.28,0,0,1,1-2.84c.32-.7,1-2.38,1.87-2.39a1.74,1.74,0,0,1,1.49,1.22,4.65,4.65,0,0,1-.18,1.53,13.58,13.58,0,0,1-.88,2.56,14.64,14.64,0,0,1-2.71,4c-.78.82-1.78,1.8-3,1.31s-1.15-1.94-1-3.13c0-.32-.47-.31-.5,0Z" transform="translate(-304.03 -249.77)"/><path class="cls-2" d="M391.73,454.83c1,.81,2.31.18,3.13-.62,1.07-1.06,2.06-2.21,3.09-3.32.22-.23-.14-.59-.36-.35l-2.67,2.88a4.81,4.81,0,0,1-1.31,1.11,1.5,1.5,0,0,1-1.53-.06c-.25-.19-.6.16-.35.36Z" transform="translate(-304.03 -249.77)"/><path class="cls-2" d="M394.85,450.3a58.29,58.29,0,0,0-1.29,11.09c0,1-.37,2.91.62,3.57s2-.56,2.45-1.3c1.77-2.7,2.12-6,2.6-9.12a24.23,24.23,0,0,1,1.18-5.05,4.62,4.62,0,0,1,1.68-2.53,1.39,1.39,0,0,1,1.89.36,2.71,2.71,0,0,1,.17,2c-.4,2.08-1,4.15-1.49,6.22a8.63,8.63,0,0,1-1.05,3.1c-.67.93-2.48,1.53-2.85,0-.07-.32-.55-.18-.48.13a1.82,1.82,0,0,0,2.45,1.23c1.49-.54,1.92-2.23,2.25-3.6.5-2.07,1-4.15,1.49-6.22.29-1.23.63-3-.79-3.72-1.26-.62-2.48.43-3.08,1.47a16.14,16.14,0,0,0-1.64,5.25c-.33,1.87-.53,3.76-.94,5.61a11.64,11.64,0,0,1-2.28,5.32,2,2,0,0,1-.56.47c-1.09.38-1.1-.67-1.12-1.19s0-1.18,0-1.76c0-1.18.07-2.35.16-3.53a55.68,55.68,0,0,1,1.11-7.6c.07-.32-.42-.45-.48-.14Z" transform="translate(-304.03 -249.77)"/><path class="cls-2" d="M402.84,455.06a1.84,1.84,0,0,0,.51,1.93,1.8,1.8,0,0,0,2.78-.58.25.25,0,0,0-.09-.34.24.24,0,0,0-.34.09,1.29,1.29,0,0,1-2.38-1c.11-.3-.38-.43-.48-.13Z" transform="translate(-304.03 -249.77)"/><path class="cls-2" d="M404.77,447.89a5.21,5.21,0,0,1,2.55-2.62.25.25,0,0,0,.09-.34.28.28,0,0,0-.35-.09,5.58,5.58,0,0,0-2.72,2.8.25.25,0,0,0,.09.34.24.24,0,0,0,.34-.09Z" transform="translate(-304.03 -249.77)"/><path class="cls-2" d="M410.93,444.16a24.8,24.8,0,0,0-1.49,6c-.16,1.34-.6,3.68.62,4.69s2.94-.65,3.77-1.6a22.18,22.18,0,0,0,5.06-10.49c.06-.32-.42-.45-.48-.14a21.82,21.82,0,0,1-5.47,10.87c-.68.72-2.12,1.94-2.86.61a5.47,5.47,0,0,1-.24-2.92,24.31,24.31,0,0,1,1.57-6.88c.12-.3-.36-.43-.48-.13Z" transform="translate(-304.03 -249.77)"/><path class="cls-2" d="M415.29,450.7c-2,5.83-2.47,13.4-8.31,16.92a.25.25,0,0,0,.25.43c6-3.6,6.51-11.24,8.54-17.22.11-.31-.38-.44-.48-.13Z" transform="translate(-304.03 -249.77)"/><path class="cls-2" d="M389.52,479.85A28.22,28.22,0,0,1,401.42,462c2.95-2,6.79-4,10.4-4.09,2.17-.06,4.71,1.12,4.71,3.61,0,2.22-1.8,3.83-3.33,5.18-.24.21.11.56.35.35,2-1.73,4.56-4.41,3.06-7.25-1.4-2.67-4.81-2.64-7.33-2a28.39,28.39,0,0,0-15.77,11.26A29.17,29.17,0,0,0,389,479.72c-.06.31.42.45.49.13Z" transform="translate(-304.03 -249.77)"/><path class="cls-2" d="M418.8,449.46a2,2,0,0,0,1.79,1.89c1.32.19,2.48-.79,3.38-1.62a33.64,33.64,0,0,0,6-8.38c3.34-5.94,7.25-13.41,14.8-14.35.32,0,.32-.54,0-.5-5.58.7-9.6,5.1-12.4,9.65-1.64,2.66-3,5.46-4.69,8.1a28.8,28.8,0,0,1-3,4,15.53,15.53,0,0,1-1.75,1.69c-1,.79-3.62,1.79-3.7-.46,0-.32-.52-.32-.5,0Z" transform="translate(-304.03 -249.77)"/><path class="cls-2" d="M444.7,427.22a24.9,24.9,0,0,0-8.65,14.19,23.71,23.71,0,0,0-.49,3.94,5.38,5.38,0,0,0,.56,3.21c1.51,2.21,3.94-.18,5-1.55a14.33,14.33,0,0,0,2.73-9.19c0-.32-.51-.32-.5,0a13.81,13.81,0,0,1-2.75,9.05,5.78,5.78,0,0,1-2,1.85,1.67,1.67,0,0,1-2.43-1.35,12.4,12.4,0,0,1,.15-4.66,24.42,24.42,0,0,1,8.74-15.13c.25-.21-.11-.56-.36-.36Z" transform="translate(-304.03 -249.77)"/><path class="cls-2" d="M440.52,448.23a10.58,10.58,0,0,0,8.42-7.72.25.25,0,0,0-.48-.13,10.08,10.08,0,0,1-8.08,7.37c-.31.05-.18.53.14.48Z" transform="translate(-304.03 -249.77)"/><path class="cls-2" d="M443.5,447c.07,1.68,1.75,2.48,3.27,2.27a7.09,7.09,0,0,0,4.21-2.65A25.15,25.15,0,0,0,455.73,436c.07-.32-.41-.45-.48-.14a27.62,27.62,0,0,1-3.71,9.16,9.16,9.16,0,0,1-3.11,3.14,4.21,4.21,0,0,1-2.74.62A2,2,0,0,1,444,447c0-.32-.51-.33-.5,0Z" transform="translate(-304.03 -249.77)"/><path class="cls-2" d="M465.42,441.24a4.17,4.17,0,0,0-4.55-2.72c-2.43.25-4.32,2.22-5.71,4.06s-2.42,4.55-.38,6.21c1.73,1.4,4.16.66,5.71-.61a24,24,0,0,0,3.17-3.51l3.61-4.36c.2-.25-.15-.61-.35-.36-1.62,2-3.23,3.93-4.87,5.89-1.32,1.58-3,3.34-5.22,3.19a2.74,2.74,0,0,1-2.49-1.69,4.05,4.05,0,0,1,.5-3.38,10.61,10.61,0,0,1,4.82-4.62c1.92-.76,4.66-.19,5.28,2a.25.25,0,0,0,.48-.13Z" transform="translate(-304.03 -249.77)"/><path class="cls-2" d="M460.31,449.84a15.62,15.62,0,0,0,14.58-8.47c.12-.24-.21-.54-.39-.3l-8.34,10.41a.25.25,0,0,0,.18.42,18.85,18.85,0,0,0,14.23-4.56l-.35-.36A82.13,82.13,0,0,1,440,467.88c-.31.07-.18.55.13.49a82.7,82.7,0,0,0,40.45-21,.25.25,0,0,0-.35-.36,18.35,18.35,0,0,1-13.88,4.42l.18.43,8.33-10.41-.39-.3a15.14,15.14,0,0,1-14.15,8.22c-.33,0-.32.48,0,.5Z" transform="translate(-304.03 -249.77)"/><path class="cls-2" d="M430.26,464.29c-1.65-2.68-.43-6,1.8-7.92s5.06-2.72,7.77-3.4a46.17,46.17,0,0,1,18.76-.79c2.85.47,5.81,1.16,8.16,2.92s3.9,4.61,3.12,7.54c-1.72,6.46-9.8,6.72-14.91,4.72-3-1.16-5.83-3.58-5.66-7.06a4,4,0,0,1,2.41-3.65,3.49,3.49,0,0,1,4.18.93c.19.25.63,0,.43-.25a4.14,4.14,0,0,0-5.75-.62c-2.13,1.56-2.14,4.69-1,6.86,1.4,2.76,4.5,4.2,7.37,4.93,3.24.82,6.95.85,9.85-1a7.76,7.76,0,0,0,3.78-7.13c-.34-3-2.64-5.41-5.25-6.74-3.21-1.62-7-2.12-10.55-2.4a47.13,47.13,0,0,0-11.86.59c-3.79.68-8.18,1.62-11.17,4.21-2.4,2.08-3.65,5.67-1.88,8.53.17.27.6,0,.43-.25Z" transform="translate(-304.03 -249.77)"/><path class="cls-2" d="M448.72,367.33c1.33,1.63,3.83,2,5.81,2.21a26.19,26.19,0,0,0,7.64-.65c5.62-1.15,11.36-3.23,17.1-1.53a.25.25,0,0,0,.13-.48c-4.89-1.45-9.89-.21-14.71.93a39.74,39.74,0,0,1-7.73,1.28c-2.46.1-6.18,0-7.88-2.11-.21-.25-.56.11-.36.35Z" transform="translate(-304.03 -249.77)"/><path class="cls-2" d="M477.78,369.61c-4,.39-7.93-.5-11.76-1.58s-7.44-2.39-11.12-3.71c-.3-.11-.43.38-.13.49,3.81,1.37,7.63,2.74,11.54,3.82a31.47,31.47,0,0,0,11.47,1.48c.32,0,.32-.53,0-.5Z" transform="translate(-304.03 -249.77)"/><path class="cls-2" d="M478.45,372a58.46,58.46,0,0,1,3.83-10.51l-.47-.13a71.55,71.55,0,0,1-.24,8c-.1,1.17,0,2.79-.91,3.7a1.23,1.23,0,0,1-1.75.23,1.76,1.76,0,0,1-.41-1.52c.08-.32-.41-.45-.48-.14a2,2,0,0,0,1.16,2.4c1.26.34,2.24-.87,2.54-1.94a12.85,12.85,0,0,0,.31-2.24c.09-.94.16-1.88.21-2.83.1-1.89.12-3.78.07-5.68a.25.25,0,0,0-.47-.12A60.81,60.81,0,0,0,478,371.9a.26.26,0,0,0,.49.14Z" transform="translate(-304.03 -249.77)"/><path class="cls-2" d="M482.56,367.78a1.37,1.37,0,0,1,2.24-.51c.74.75.3,2.07.06,3a11.52,11.52,0,0,1-.57,1.62,2.13,2.13,0,0,1-.76,1,.82.82,0,0,1-1.12-.38,2.69,2.69,0,0,1-.21-1.56c0-.32-.49-.32-.5,0,0,.91,0,2.09,1,2.47s1.62-.5,2-1.25a11.52,11.52,0,0,0,1-3.4,2,2,0,0,0-1.15-2.23,1.89,1.89,0,0,0-2.44,1.14c-.11.31.37.44.48.14Z" transform="translate(-304.03 -249.77)"/><path class="cls-2" d="M486.22,367.75a.82.82,0,0,1,.79-.66,1.18,1.18,0,0,1,1,.59,2.94,2.94,0,0,1-.27,2.69c-.38.84-.75,1.71-1.17,2.54-.17.33-.45.75-.87.52s-.46-.75-.53-1.14-.54-.18-.48.13c.12.72.52,1.78,1.46,1.56a1.29,1.29,0,0,0,.77-.66c.26-.45.45-.95.67-1.43a10.18,10.18,0,0,0,1.13-2.95,2.1,2.1,0,0,0-1-2.19,1.35,1.35,0,0,0-1.94.87c-.06.31.42.44.48.13Z" transform="translate(-304.03 -249.77)"/><path class="cls-2" d="M486.3,373.65,485,381.33c0,.22.24.46.42.24a29.15,29.15,0,0,0,4.63-7.53,24.94,24.94,0,0,0,1.41-4.28c.23-1.07.07-2.43-1.25-2.56-.32,0-.31.47,0,.5,2.18.22-.69,6.39-1.2,7.44a28.66,28.66,0,0,1-3.94,6.08l.41.24,1.28-7.67c0-.32-.43-.45-.49-.14Z" transform="translate(-304.03 -249.77)"/><path class="cls-2" d="M490.57,367.3a2.63,2.63,0,0,0-2.17.26.25.25,0,0,0,.25.43,2.17,2.17,0,0,1,1.79-.21.24.24,0,0,0,.31-.17.25.25,0,0,0-.18-.31Z" transform="translate(-304.03 -249.77)"/><path class="cls-2" d="M491.08,371.15c3.71,3.88,9.46,3.62,14.27,2.43,5.95-1.47,12.91-4.61,18.49-.45.26.19.51-.24.25-.43-4.7-3.51-10.56-1.94-15.72-.46-5.46,1.56-12.45,3.25-16.94-1.44-.22-.23-.57.12-.35.35Z" transform="translate(-304.03 -249.77)"/><path class="cls-2" d="M524.08,374.31a61.69,61.69,0,0,1-9.22.05,33.38,33.38,0,0,1-9-2.35c-4.73-1.82-10-3.79-14.93-1.37-.29.15,0,.58.25.44,5.36-2.66,11.12.19,16.23,2.05,5.46,2,10.94,2,16.67,1.68.32,0,.32-.52,0-.5Z" transform="translate(-304.03 -249.77)"/><path class="cls-2" d="M524.57,374.33a13.76,13.76,0,0,1,1.34-9.38l-.39.05a9.16,9.16,0,0,1,1.68,6.57,26.41,26.41,0,0,1-.47,3.65c-.13.61-.49,1.22-1.22,1s-.88-1-1-1.63c-.06-.32-.54-.19-.48.13.18,1,1,2.46,2.25,2a1.52,1.52,0,0,0,.86-1.09,16.78,16.78,0,0,0,.38-2.34c.39-3,.34-6.19-1.66-8.61a.25.25,0,0,0-.39.05,14.3,14.3,0,0,0-1.39,9.77c.07.32.55.19.48-.13Z" transform="translate(-304.03 -249.77)"/><path class="cls-2" d="M527.78,370.69c.92-.2,2.22-.39,2.62.73a6.23,6.23,0,0,1,0,2.65c-.08.84-.13,2-1.2,2.07a1.8,1.8,0,0,1-1.76-1.59c-.07-.32-.55-.18-.48.13a2.52,2.52,0,0,0,1.45,1.85,1.76,1.76,0,0,0,2.07-.6,2.82,2.82,0,0,0,.36-1.23c.06-.52.11-1,.16-1.57a3.26,3.26,0,0,0-.38-2.39c-.71-.92-2-.75-2.94-.53-.32.07-.19.55.13.48Z" transform="translate(-304.03 -249.77)"/><path class="cls-2" d="M531,371.13c.66-.64,1.58-.07,1.89.63a5.35,5.35,0,0,1,0,2.89c-.07.45-.12.91-.2,1.36a.88.88,0,0,1-.73.81,1.34,1.34,0,0,1-1.47-1.07.25.25,0,0,0-.48.14,1.88,1.88,0,0,0,1.37,1.4,1.42,1.42,0,0,0,1.7-.8,6.74,6.74,0,0,0,.25-1.48c.08-.53.17-1.06.22-1.59a3.13,3.13,0,0,0-.64-2.51,1.63,1.63,0,0,0-2.28-.14.25.25,0,0,0,.35.36Z" transform="translate(-304.03 -249.77)"/><path class="cls-2" d="M533.52,372.22a1.36,1.36,0,0,1,1.72-.41,1.5,1.5,0,0,1,.77,1.41,24.08,24.08,0,0,1-.49,3.36,48.29,48.29,0,0,0-.44,6.69l.49-.07a33.84,33.84,0,0,0-2.26-7.74c-.13-.29-.56,0-.43.26a33.62,33.62,0,0,1,2.21,7.62c0,.28.49.2.49-.07a58.09,58.09,0,0,1,.84-9.21,2.38,2.38,0,0,0-.85-2.64,1.88,1.88,0,0,0-2.48.55c-.2.26.23.5.43.25Z" transform="translate(-304.03 -249.77)"/><path class="cls-2" d="M536.32,374.62a19.13,19.13,0,0,1,9.33-.06,52.24,52.24,0,0,1,8.26,3.24c4.37,1.9,9.35,3.42,13.78.89a.25.25,0,0,0-.25-.43c-5.33,3-11.2,0-16.22-2.2-4.86-2.15-9.77-3.26-15-1.93a.25.25,0,0,0,.13.49Z" transform="translate(-304.03 -249.77)"/><path class="cls-2" d="M536.2,374.44c3.85,3.22,9,3,13.71,2.4a42.34,42.34,0,0,1,8.64-.51,25.92,25.92,0,0,1,8.85,2.35c.29.13.55-.3.26-.43A28.15,28.15,0,0,0,552.29,376c-5.24.61-11.31,1.75-15.73-2-.25-.21-.6.14-.36.35Z" transform="translate(-304.03 -249.77)"/><path class="cls-2" d="M567.54,378v-8l-.49.07c.55,2.77,1.88,5.29,2.7,8a15.6,15.6,0,0,1,.48,2c.08.44.44,2.23-.34,2.13-.55-.07-1.11-1.32-1.32-1.77a7.3,7.3,0,0,1-.67-2.28c0-.32-.54-.32-.5,0a6.94,6.94,0,0,0,1.93,4.28.92.92,0,0,0,1.34.06c.42-.51.19-1.52.11-2.11-.48-3.65-2.54-6.85-3.25-10.44a.25.25,0,0,0-.49.06v8a.25.25,0,0,0,.5,0Z" transform="translate(-304.03 -249.77)"/><path class="cls-2" d="M570.53,377.66a.94.94,0,0,1,1.64-.1,1.94,1.94,0,0,1,.19,1c0,.41,0,.82,0,1.23l0,1.24c0,.3.09.89-.14,1.12s-.64,0-.79-.22a2,2,0,0,1-.19-1.17c0-.32-.49-.32-.5,0,0,.71.06,1.66.86,1.94a.94.94,0,0,0,.9-.13,1.21,1.21,0,0,0,.35-.94c0-.95.05-1.9.08-2.85a2.05,2.05,0,0,0-.75-2,1.43,1.43,0,0,0-2,.59c-.14.28.29.54.43.25Z" transform="translate(-304.03 -249.77)"/><path class="cls-2" d="M573.21,378.3a1.2,1.2,0,0,1,1.62.42,2.57,2.57,0,0,1,.25,2,9.63,9.63,0,0,1-.33,1.13,1.4,1.4,0,0,1-.4.71c-.3.21-.66,0-.9-.22s-.64-.48-.56-.83-.42-.45-.49-.13c-.15.71.56,1.31,1.14,1.6a1.06,1.06,0,0,0,1.54-.6,6.4,6.4,0,0,0,.58-2.34,2.49,2.49,0,0,0-.67-1.88,1.65,1.65,0,0,0-2-.27c-.27.18,0,.61.25.43Z" transform="translate(-304.03 -249.77)"/><path class="cls-2" d="M574.89,382.39a25,25,0,0,1,2.42,8.87.26.26,0,0,0,.38.21c1-.44.85-1.89.87-2.77a47.21,47.21,0,0,0-.13-4.76c-.14-1.94-.28-5.67-3.07-5.55-.32,0-.32.51,0,.5,2.57-.12,2.5,3.82,2.61,5.53.07,1.14.11,2.28.1,3.42,0,.57,0,1.14,0,1.71s0,1.24-.59,1.49l.37.22a25.64,25.64,0,0,0-2.49-9.12c-.14-.29-.57,0-.43.25Z" transform="translate(-304.03 -249.77)"/><path class="cls-2" d="M578.05,383.15c4,5.16,11.35,3,16.88,3.37.32,0,.32-.48,0-.5-5.4-.39-12.63,1.8-16.53-3.22-.2-.26-.55.1-.35.35Z" transform="translate(-304.03 -249.77)"/><path class="cls-2" d="M578.28,382.83a26.88,26.88,0,0,1,6.61.92,15,15,0,0,1,6,3.48c2.77,2.52,5.82,5.77,9.95,4.93.31-.06.18-.54-.13-.48-4.8,1-7.88-3.82-11.25-6.29-3.22-2.35-7.25-2.92-11.13-3.06-.32,0-.32.49,0,.5Z" transform="translate(-304.03 -249.77)"/><path class="cls-2" d="M415,384.29l-7,15.85c-2.13,4.84-4.39,9.64-6.21,14.6-1.65,4.51-3.21,9.64-2.87,14.51a5.27,5.27,0,0,0,2,4.23c1.89,1.24,4.74,1.16,6.89,1.46l8.5,1.19c1.8.25,3.89.7,5.57-.22s2.31-3.24,2.91-5l2.78-8.24,11-32.46c.53-1.58,2-4.41.09-5.64a6.67,6.67,0,0,0-3-.65l-5-.53-9.42-1c-2.57-.27-5.27-.75-7.68.46-.29.15,0,.58.25.44,2.17-1.1,4.62-.7,6.94-.45l7.68.83,7.44.8a10.14,10.14,0,0,1,1.73.24,1.94,1.94,0,0,1,1.35,2.41,26.11,26.11,0,0,1-1.1,3.45L428.27,419c-1.55,4.6-2.93,9.31-4.69,13.84a4.39,4.39,0,0,1-2.57,2.9,8.4,8.4,0,0,1-3.6,0l-7.29-1c-2.3-.33-4.66-.54-6.94-1-2.61-.52-3.71-2.34-3.81-4.89-.17-4.6,1.18-9.31,2.72-13.59,1.85-5.15,4.2-10.12,6.41-15.13l6.88-15.63c.13-.29-.3-.55-.43-.25Z" transform="translate(-304.03 -249.77)"/><path class="cls-2" d="M415.31,415.13a3.71,3.71,0,0,0,4.08,3.28c2.36-.21,4.05-2.2,4.81-4.3a22.24,22.24,0,0,0,.85-8.85,32.38,32.38,0,0,0-2-9.17.26.26,0,0,0-.42-.11c-2.75,2.39-5.53,4.76-8.26,7.17a23,23,0,0,0-5.67,6.69c-1.07,2.16-1.88,5.43.33,7.2s4.87,0,6.39-1.67c.21-.25-.14-.6-.35-.36a5.59,5.59,0,0,1-3.69,2.23,3.12,3.12,0,0,1-3.24-3.06c-.23-2.62,1.46-5.28,3.07-7.19a47.32,47.32,0,0,1,5.07-4.84l6.71-5.81-.42-.11a31.59,31.59,0,0,1,1.85,14.19c-.24,2.31-.78,4.84-2.65,6.41s-5.73,1.41-6-1.7c0-.31-.53-.32-.5,0Z" transform="translate(-304.03 -249.77)"/><path class="cls-2" d="M412.55,407.56a11.27,11.27,0,0,0-2,3.78c-.31,1-.82,2.68,0,3.57s2.25.21,3.11-.32a20.23,20.23,0,0,0,3.79-3l-.43-.18c-.08,1.72.08,4.38,2.28,4.72s3-2.21,3.48-3.79a19.53,19.53,0,0,0-.56-13.82.26.26,0,0,0-.4-.05c-3,3.1-6.24,6.05-9.29,9.15-.22.22.13.58.36.35,3-3.1,6.24-6.05,9.29-9.15l-.4,0a18.15,18.15,0,0,1,1.09,11.15,22.52,22.52,0,0,1-.66,2.57,5.45,5.45,0,0,1-1.41,2.67,1.82,1.82,0,0,1-2.8-.52,5.5,5.5,0,0,1-.48-3.23.26.26,0,0,0-.43-.18,19.73,19.73,0,0,1-2.59,2.24,15.19,15.19,0,0,1-1.46.95c-.67.38-1.45.75-2.05.11-.78-.83-.18-2.45.16-3.42a10.75,10.75,0,0,1,1.79-3.16c.2-.25-.15-.6-.36-.35Z" transform="translate(-304.03 -249.77)"/><path class="cls-2" d="M415.12,415.07c-1.18,2.8-3.93,4.5-5.36,7.14a.25.25,0,0,0,.21.37q3.67.1,7.34-.15a.25.25,0,0,0,.24-.31l-1.88-7.07a.25.25,0,0,0-.48.13l1.87,7.07.25-.32q-3.66.26-7.34.15l.22.38c1.45-2.68,4.21-4.41,5.41-7.26.13-.29-.35-.42-.48-.13Z" transform="translate(-304.03 -249.77)"/><path class="cls-2" d="M420.5,429.32l.41,3.46a.25.25,0,0,0,.46.13l2.2-3.74a.25.25,0,0,0-.44-.25l-2.19,3.73.47.13-.41-3.46a.25.25,0,1,0-.5,0Z" transform="translate(-304.03 -249.77)"/><path class="cls-2" d="M421,430.65l1.05.09a.26.26,0,0,0,.25-.25.25.25,0,0,0-.25-.25l-1.05-.09a.25.25,0,0,0-.25.25.26.26,0,0,0,.25.25Z" transform="translate(-304.03 -249.77)"/><path class="cls-2" d="M655.19,487.78c-1.12-3.8-7.24-2.2-9.31,1.17s-2.84,7.91-6.28,9.86A251.86,251.86,0,0,0,622.19,425c-3.71-9.19-8-18.25-14.18-26a92.85,92.85,0,0,0-18.94-17.32c-16.55-11.89-35.58-20.75-55.76-23.62-35.23-5-70.19,8.32-103.29,21.4-10.85,4.28-21.84,8.65-31.17,15.65-6.48,4.87-12,10.89-17.39,16.94s-10.55,12-14.58,18.81c-4.57,7.76-7.45,16.38-10.3,24.93-3.77,11.29-4.36,22.15-8.13,33.44-1.23-4.47-5.69-8.61-8.35-12.42s-9.4-1.92-14-1.62-2.63,7-5.65,4.48l1.7,5.18c1.16-3.65-2.51-12.49-6.08-13.87l-4.16-8.11c-3.74-7.29-7.56-14.91-7.67-23.1S308.94,422.64,317,421c-2.81-4.89,3-10.22,4.15-15.75,1.41-6.91-4.8-14.33-1.75-20.69,2.34-4.88,8.61-6,13.74-7.72,17.52-6,27.62-27.9,20.79-45.1-.36-.91-.75-2-.24-2.8a3,3,0,0,1,1.44-1,51.76,51.76,0,0,1,24.63-4.13c3.36.26,6.87.83,10-.4,4.28-1.69,7.13-6.49,11.7-7.05a18,18,0,0,0,9-15.63c0-3.24.34-8,3.56-7.74-2.79-1.83-1.85-6.49.82-8.5s6.21-2.23,9.5-2.77,6.89-1.8,8.33-4.81c2.37-5-2.69-10.61-1.91-16.05.88-6.08,8.36-8.72,14.49-8.4s12.48,2.27,18.26.2c2.36-.85,4.53-2.35,7-2.64,5.25-.62,9.62,4.38,11.06,9.47s1,10.55,2.29,15.68,5.26,10.34,10.54,10.2l.66-5.32,21,1.43a12.06,12.06,0,0,0,12.5,2.37c-1.62-1.35-1-4.17.6-5.5s3.87-1.59,6-1.8l18.87-1.84c1.76-.17,3.64-.33,5.2.49,4.24,2.21,2.9,9.09,6.25,12.49,3.69,3.75,9.89,1,15.13.73,9-.52,16.36,6.79,22.39,13.52,5.74,6.41,11.91,14.67,9.1,22.8l-.17-.36c1.64-.12,1.63-2.66,2.85-3.77a4.14,4.14,0,0,1,2.8-.71l9.42-.06c1.76,0,4,.28,4.53,1.95.66,1.94-1.27,4.86.59,5.74a4.54,4.54,0,0,0,1.24-5.92,51.47,51.47,0,0,1,16.26,2.3c2.4.74,4.91,1.79,6.25,3.92,2.41,3.85-.28,8.94-3.67,12a27.67,27.67,0,0,1-17.07,6.95c1,3.29,4.22,5.51,7.55,6.36s6.84.6,10.28.47a6.26,6.26,0,0,1,3.1.44,6.18,6.18,0,0,1,1.9,1.81c2.17,2.8,4.73,6,8.27,6a5.36,5.36,0,0,0,2.62,5.16c-3.78,2.78-2.62,8.77-.18,12.77,4,6.53,10.09,11.4,16.08,16.13a3.47,3.47,0,0,0-1.31,4.13,10,10,0,0,0,2.76,3.77c-1.33,2.13-2.72,4.6-2,7s4.75,3.4,5.57,1c.47-1.34-.4-2.74-.71-4.13s.69-3.36,2-2.82c.77.3,1,1.26,1.08,2.08.49,5.21-1.28,10.37-1.28,15.59,0,5.66,2,11.11,4.22,16.33a4.18,4.18,0,0,1-.44,5.25l-4,5.58a4.45,4.45,0,0,1-1.57,1.54,4.33,4.33,0,0,1-2.84,0l-20.13-4.84c3.57,3.15,5,8,5.76,12.75s.87,9.56,2.48,14a9.4,9.4,0,0,1,.82,3.18c0,2.76-2.8,4.58-5.24,5.87l-13.63,7.26" transform="translate(-304.03 -249.77)"/><path class="cls-2" d="M655.43,487.71c-1.48-4.13-7.12-2.13-9.22.37-1.78,2.12-2.43,5-3.81,7.4a9.81,9.81,0,0,1-1.53,2c-1.16,1.15-1.06.79-1.18-.53q-.29-3.28-.66-6.56a252.69,252.69,0,0,0-10-47.28c-4.65-14.74-10.18-30.19-19.49-42.69-8.75-11.76-21.39-20.71-34-27.87a120.54,120.54,0,0,0-42.07-14.83c-15.87-2.25-32-.76-47.57,2.73-16.3,3.65-32.05,9.38-47.6,15.42C424,381.43,409,386.56,397,396.19c-6.23,5-11.58,11-16.87,16.93-5.05,5.69-10,11.54-13.8,18.16-3.91,6.82-6.57,14.26-9.07,21.68-2.66,7.91-4.21,16-5.91,24.12a113,113,0,0,1-3.12,12h.48c-1.21-4-4.11-7.05-6.64-10.21-1.06-1.33-1.94-3-3.47-3.83a9.18,9.18,0,0,0-4.5-.92,47.13,47.13,0,0,0-5.81.51c-1.27.15-2.79,0-3.92.72a4.18,4.18,0,0,0-1.62,2c-.46,1.08-.59,3.24-2.14,2-.18-.14-.5,0-.42.24l1.7,5.17a.25.25,0,0,0,.48,0c1.06-3.87-1.23-9-3.59-12a15.07,15.07,0,0,0-2-1.9c-1.37-1.21-2.08-3.29-2.92-4.92-1.71-3.33-3.46-6.64-5-10-3.06-6.67-5.53-14.25-3.75-21.61,1.48-6.1,5.62-11.75,12-13.18a.25.25,0,0,0,.15-.37c-1.82-3.51.42-7.08,2-10.21,1.28-2.5,2.41-5,2.35-7.88-.13-6.13-5.22-13.16-1.48-19,3.31-5.17,10.86-5.51,16-7.88a33.38,33.38,0,0,0,12.41-10.07c6.59-8.58,9.56-20.2,6.77-30.77-.35-1.31-1.1-2.64-1.33-4a3.67,3.67,0,0,1,.74-2.72,6.46,6.46,0,0,1,1.78-.78q1.63-.64,3.3-1.2A51.62,51.62,0,0,1,371.67,324a79.46,79.46,0,0,1,11.44.28c3.28.22,6.3-.12,9.08-2s5.13-4.81,8.53-5.62c2.78-.66,5.21-3.35,6.78-5.64a18.23,18.23,0,0,0,3.2-9.22c.15-2.52-.55-8.7,3.33-8.64a.26.26,0,0,0,.13-.47c-2.18-1.63-1.83-4.72-.42-6.76,1.67-2.4,4.84-3.11,7.55-3.57,3.69-.62,8.07-.93,10.68-4,2.42-2.84,1.54-6.51.5-9.73-1.4-4.34-2.73-9,1.15-12.53,7.64-6.9,18.41-1.13,27.26-2.6,4.83-.8,9.11-5,14.11-2.48,4.45,2.29,6.41,7.3,7.1,12,.8,5.31.44,11,3,15.88,1.87,3.63,5.11,6.63,9.37,6.67a.25.25,0,0,0,.25-.25l.38-3c.17-1.41.08-1.83,1.58-1.93a45.38,45.38,0,0,1,5.46.37l11.29.77a7.06,7.06,0,0,1,3,.5c.5.28,1,.76,1.46,1.06a12.25,12.25,0,0,0,3.27,1.39,12.44,12.44,0,0,0,7.58-.4.26.26,0,0,0,.11-.42c-2.38-2.38.27-5.43,2.69-6.23a30.92,30.92,0,0,1,6.72-.93l13.59-1.33c2.18-.21,4.64-.74,6.75,0,2,.7,2.88,2.37,3.48,4.25.82,2.55,1.05,5.44,2.68,7.66,3.86,5.29,11.63,1.53,16.83,1.53,8,0,14.37,6,19.46,11.44,6,6.38,13.9,15.13,10.88,24.59l.46-.06c0-.1.5-.28.8-.6a10.31,10.31,0,0,0,1.15-2.24c1.19-2,3.5-1.63,5.49-1.64l4.71,0a20.86,20.86,0,0,1,4.47.13c2.18.47,2.64,2,2.33,4-.21,1.31-.55,2.64.73,3.46a.24.24,0,0,0,.3,0,4.87,4.87,0,0,0,1.92-4.17c0-.66-.48-1.32-.13-1.68s3.43.09,3.94.13a51,51,0,0,1,8.77,1.4c2.66.66,5.74,1.39,7.8,3.31,4.6,4.3.22,10.72-3.55,13.77a27.84,27.84,0,0,1-15.91,6,.25.25,0,0,0-.24.31c2,5.69,8.24,7.17,13.63,7.16,1.79,0,3.61-.23,5.4-.15,2.5.11,3.5,1.8,4.92,3.53s3.33,3.84,5.72,4.52c.54.16,1.08.05,1.39.56a13,13,0,0,1,.27,1.71,5.85,5.85,0,0,0,.63,1.31c.27.43,1.23,1.08,1.35,1.46s-1,1.51-1.25,2a7.41,7.41,0,0,0-.76,2.85c-.41,5.46,3.35,10.41,6.83,14.21a71.55,71.55,0,0,0,7.46,6.89c.67.56,1.36,1.11,2,1.66.38.3,1.5.93,1.63,1.36.08.27-.93,1.49-1,2a4.42,4.42,0,0,0,.31,2.8,7.71,7.71,0,0,0,1,1.55c.31.4,1.1.92,1.23,1.37.34,1.15-1.29,3-1.61,4.22a5.29,5.29,0,0,0,.1,3.49c1.26,2.7,6.35,3.13,6-.67-.12-1.42-1.69-3.63-.46-4.91l2.17.84.12,1.14c0,.47,0,.95,0,1.42,0,1-.08,1.89-.18,2.83-.39,3.78-1.28,7.52-1.18,11.34a35.34,35.34,0,0,0,2.4,11.06c.7,1.95,1.74,3.86,2.29,5.86.71,2.55-1.51,4.69-2.89,6.61-.66.93-1.31,1.88-2,2.79-1.24,1.65-2.67,1.73-4.5,1.3l-6.33-1.52-13.42-3.23a.25.25,0,0,0-.24.41c6.74,6.26,5.38,16.15,7.45,24.3.58,2.32,2.31,5.05,1,7.39-1,1.87-3.11,3-4.93,3.95q-6.65,3.56-13.29,7.07c-.29.15,0,.59.25.43,5-2.66,10.29-5.09,15.11-8.09a8.38,8.38,0,0,0,3.52-3.58c.76-1.83,0-3.5-.59-5.25-3-8.73-.79-19.71-8.18-26.57l-.24.42,11.55,2.78,5.59,1.35a24.15,24.15,0,0,0,4.49,1c2.69.11,4.08-3.12,5.41-5,1.73-2.42,3.61-4.25,2.49-7.32A96.19,96.19,0,0,1,692,429.11a31.75,31.75,0,0,1-.33-12.17c.23-1.62,2.59-13.61-1.42-12.33-2.74.88-.61,4.87-.73,6.49-.19,2.67-3.58,2.07-4.73.29-1.49-2.34.46-5.47,1.69-7.46a.24.24,0,0,0,0-.3c-1.78-1.79-4.73-5.44-1.49-7.51a.25.25,0,0,0,.05-.39c-4.94-3.91-10-7.88-13.84-12.9-3.09-4-7.21-11.53-2.07-15.66a.25.25,0,0,0,0-.39,5.25,5.25,0,0,1-2.49-4.94.25.25,0,0,0-.25-.25c-3.46-.21-5.75-3-7.75-5.53a7.66,7.66,0,0,0-2.33-2.31c-1.3-.67-2.89-.47-4.3-.41-3.86.15-7.9.32-11.49-1.38a10,10,0,0,1-4-3.35c-.44-.64-.88-1.33-.22-1.71a9.73,9.73,0,0,1,2.31-.29c5.75-.95,11.79-3.81,15.59-8.34,3-3.52,4.66-9,.49-12.35-2.55-2-6.2-2.8-9.31-3.46a54,54,0,0,0-11.82-1.13.25.25,0,0,0-.22.37,4.41,4.41,0,0,1,.43,3.26,4.69,4.69,0,0,1-.6,1.33l-.63.71-.8-1.09c-.25-1.17.56-2.49.35-3.72-.35-2-2.39-2.51-4.15-2.61a77,77,0,0,0-11.06.08,3.31,3.31,0,0,0-2.38,1.07c-.85,1-.89,3.06-2.43,3.38a.24.24,0,0,0-.15.36l.16.37c.09.21.4.13.46-.06,3.24-10.18-5.81-19.74-12.29-26.42-3.43-3.55-7.28-7-11.91-8.88s-8.73-1.23-13.42-.49c-2.86.46-6.26.9-8.65-1.13-1.78-1.5-2.36-3.86-2.9-6-.89-3.5-2-7.13-6.14-7.51-3.06-.28-6.37.43-9.41.73l-9.44.92c-3.63.35-10.35.24-10.78,5.26a7.55,7.55,0,0,0,.38,2c.11.7.52.17-.08.64a6.75,6.75,0,0,1-2.8.5,12,12,0,0,1-4.52-.65,11.65,11.65,0,0,1-2.32-1.08c-.6-.37-1.19-1.14-1.82-1.39-1.09-.43-2.86-.24-4-.32l-5.45-.37-11.68-.79a.25.25,0,0,0-.25.25l-.28,2.28a8,8,0,0,1-.28,2.28c-.78,1-2.79.07-3.77-.45a12.87,12.87,0,0,1-5.27-6c-2.56-5.4-1.78-11.65-3.05-17.37-.89-4.05-3.15-8.17-6.95-10.14-4.58-2.36-8.14.64-12.46,2-9.41,2.87-20.14-3.94-28.78,2.59-3.1,2.34-4,5.81-3.23,9.52,1.07,4.89,4.79,11.06-.73,14.72-4.61,3.06-11,1.39-15.37,4.85-2.65,2.08-3.77,6.63-.76,8.88l.12-.46c-3,0-3.58,3.36-3.75,5.73a35.4,35.4,0,0,1-.61,6.73,18.06,18.06,0,0,1-3.6,7,13.27,13.27,0,0,1-6.23,4.3,15.14,15.14,0,0,0-4.55,2.82c-1.94,1.57-3.83,3.33-6.26,4.1-2.79.89-5.78.46-8.64.22a52.86,52.86,0,0,0-16.06,1.06,51.27,51.27,0,0,0-7.37,2.23c-1.57.61-3.8,1.12-3.8,3.16,0,1.64,1.19,3.59,1.61,5.17a30.85,30.85,0,0,1,1,7A35.45,35.45,0,0,1,354,354.38a35.82,35.82,0,0,1-15.46,19.69c-3.83,2.25-8.07,3.14-12.17,4.71-3.29,1.26-6.48,3.2-7.64,6.73-1.3,4,.43,8.21,1.46,12a18.77,18.77,0,0,1,.85,6.61c-.28,2.82-1.79,5.32-3,7.8a17.15,17.15,0,0,0-1.93,5.1,6.66,6.66,0,0,0,0,2.09c.24,1.45.9,1.49-.67,2a15.7,15.7,0,0,0-8.19,6.83c-5.88,9.49-2.52,20.58,1.94,29.89,1.37,2.84,2.83,5.63,4.27,8.43l1,2a11.48,11.48,0,0,0,1.39,2.7c.48.48,1.24.74,1.76,1.25,2.81,2.76,5.36,8.47,4.29,12.42h.48l-1.7-5.17-.41.24c1.12.88,1.85.77,2.39-.55s.68-2.55,1.83-3.34c1.31-.92,3.81-.74,5.38-.93a26,26,0,0,1,5.5-.27c2.56.22,3.88,1.35,5.39,3.33,2.72,3.55,6.14,6.83,7.48,11.21a.25.25,0,0,0,.48,0c2.33-7.11,3.55-14.48,5.08-21.78a154,154,0,0,1,6.3-21.1,87.62,87.62,0,0,1,9.47-19.28A159,159,0,0,1,383.3,410.3a112.53,112.53,0,0,1,15.68-15A93,93,0,0,1,417.18,385c13.36-6,27.22-11.15,41-15.93,27.66-9.57,57.35-15.93,86.33-8.54a129.41,129.41,0,0,1,37.36,16.57c11.7,7.47,22.76,16.35,30.27,28.2,7.63,12,12.57,25.89,16.75,39.42a251.15,251.15,0,0,1,9.3,43.2q.67,5.46,1.12,10.93a.25.25,0,0,0,.37.22c3.17-2,4.11-5.62,5.72-8.76a7.74,7.74,0,0,1,4.27-4c1.95-.72,4.42-.68,5.23,1.59.11.3.6.17.49-.14Z" transform="translate(-304.03 -249.77)"/><path class="cls-2" d="M468.6,587.28c6.12-2.2,11.33,1.42,15.34,5.77,2,2.11,3.76,4.37,5.89,6.32,1.61,1.47,3.66,3.23,5.92,2,.71-.37.08-1.45-.63-1.08-1.57.83-3.15-.71-4.24-1.69a41.75,41.75,0,0,1-2.95-3,71.25,71.25,0,0,0-5.72-6.06c-3.91-3.43-8.84-5.34-13.95-3.5-.75.27-.42,1.48.34,1.2Z" transform="translate(-304.03 -249.77)"/><path class="cls-2" d="M460.87,596.36c-2.76-3-3-7.45-1.61-11.13,1.48-4,4.49-7.24,7.45-10.25s5.9-6,7.91-9.73a27.26,27.26,0,0,0,3.21-11.77c0-.81-1.21-.81-1.25,0a25.85,25.85,0,0,1-4.13,13c-2.57,3.95-6.22,7-9.32,10.49-2.66,3-5.1,6.49-5.75,10.52a11.49,11.49,0,0,0,2.61,9.77c.54.59,1.43-.29.88-.88Z" transform="translate(-304.03 -249.77)"/><path class="cls-2" d="M520,586c-5.11-1.84-10,.07-14,3.5a67.56,67.56,0,0,0-5.57,5.9,44,44,0,0,1-3.1,3.16c-1.08,1-2.67,2.52-4.24,1.69-.71-.37-1.34.7-.63,1.08,2.19,1.16,4.18-.47,5.76-1.89,2.2-2,4-4.31,6.05-6.47,4-4.35,9.22-8,15.34-5.77.76.28,1.09-.93.34-1.2Z" transform="translate(-304.03 -249.77)"/><path class="cls-2" d="M528.25,597.19a11.49,11.49,0,0,0,2.61-9.77c-.65-4-3.09-7.53-5.75-10.53-3.1-3.49-6.75-6.53-9.32-10.48a26,26,0,0,1-4.13-13c0-.81-1.29-.81-1.25,0a27.26,27.26,0,0,0,3.21,11.77c2,3.73,5,6.72,7.92,9.73s6,6.22,7.44,10.25c1.35,3.69,1.16,8.13-1.61,11.13-.54.59.34,1.47.88.88Z" transform="translate(-304.03 -249.77)"/><path class="cls-2" d="M442.49,636.21a26,26,0,0,0,2.82,10.62,22,22,0,0,0,7.78,8.36,74.25,74.25,0,0,0,12.48,6.25c4.32,1.83,8.69,3.53,13.16,5,16.36,5.32,34.36,7.17,50.41-.18A41.68,41.68,0,0,0,548,649.76a.63.63,0,0,0-1.08-.63c-7.59,12.9-22.52,19.73-37.06,20.68a78.52,78.52,0,0,1-26.55-3.31,138,138,0,0,1-25-9.74c-4.08-2.1-8.25-4.66-10.78-8.61a24.38,24.38,0,0,1-3.76-11.94c0-.8-1.29-.8-1.25,0Z" transform="translate(-304.03 -249.77)"/><path class="cls-2" d="M548.24,648.31a251.45,251.45,0,0,1-83.3-6.33q-11.56-2.87-22.82-6.83c-.76-.27-1.09.94-.34,1.21a252.74,252.74,0,0,0,82.67,14.25q11.91,0,23.79-1.05c.8-.07.81-1.32,0-1.25Z" transform="translate(-304.03 -249.77)"/><path class="cls-2" d="M442.75,636.59a88.25,88.25,0,0,1,52.59-.27c.78.24,1.1-1,.34-1.2a89.42,89.42,0,0,0-53.26.27c-.76.24-.43,1.45.33,1.2Z" transform="translate(-304.03 -249.77)"/><path class="cls-2" d="M496.07,636.4a84.32,84.32,0,0,1,40.84,7.24,63.52,63.52,0,0,1,9.92,5.66c.66.47,1.29-.62.63-1.08-11.46-8-25.65-12.06-39.51-13.06a81.22,81.22,0,0,0-11.88,0c-.8.05-.81,1.31,0,1.25Z" transform="translate(-304.03 -249.77)"/><path class="cls-2" d="M415.17,630.51a7.66,7.66,0,0,1,1.75,4,5.92,5.92,0,0,0,.62,1.51c.21.55.11,1.35.53,1.74s1.39.12,2,.2c1.08.14.74.59,1.46,1.11s2.75.66,3.78.67c.8,0,1.51.35,2.27.37s1.61-.38,2.48-.37a15.84,15.84,0,0,0,5.09-.46c1.47-.47,2.48-1.6,3.68-2.5a6.24,6.24,0,0,1,1.83-1c.42-.14.78-.06,1.2-.24s.84-.78,1.35-1,1.25-.16,1.89-.49c.87-.46,1.07-.88,2.07-.92,1.77-.09,3.57.15,5.33,0a30.08,30.08,0,0,0,6.08-1.46,13.16,13.16,0,0,1,3.77-.33c1.53,0,2.87-.36,4.36-.46a3.19,3.19,0,0,1,1.75.46,11.16,11.16,0,0,0,2,.54c3.11.78,6-.53,9-1,1.32-.19,2.65-.63,3.95-.89a21.49,21.49,0,0,0,4.6-1.2,6.27,6.27,0,0,0,2.24-1.42,10,10,0,0,0,1.27-2.11,6.28,6.28,0,0,0,.91-1.39,4.59,4.59,0,0,0-.05-2.84c-.22-.59-.73-.94-.88-1.57-.11-.45.16-1,.06-1.44a4.12,4.12,0,0,0-1-1.63c-.59-.72-1.22-.71-1.9-1.3-.44-.38-.67-.94-1.16-1.34-.65-.53-1.41-1.07-2.11-1.55a5.87,5.87,0,0,0-1.85-.72A23.12,23.12,0,0,1,481.1,610c-2.83-1.43-6.11-1.12-9.13-1.9a17.31,17.31,0,0,0-4.82-.4c-2,0-4.07.3-5.55,1.66a7.81,7.81,0,0,1-3.86,2,3.48,3.48,0,0,1-2,.12,20,20,0,0,0-2.2-.2c-2.76-.26-5.44-.9-8.21-.9h-4.63c-1.62,0-3.81-.43-5.27.41s-2.33,2.51-3.72,3.55c-.68.52-1.47.84-2.19,1.29s-1.4,1.22-2.18,1.77-1.73.91-2.56,1.43a6,6,0,0,1-2.3.87,10.57,10.57,0,0,0-4.94,2.75,21.81,21.81,0,0,0-1.74,2c-.6.77-1.74,1.21-2.21,2s-.23,1.61-.44,2.38a10.47,10.47,0,0,0-.22,2.63" transform="translate(-304.03 -249.77)"/><path class="cls-2" d="M414.72,631c1.19,1.3,1.2,2.83,1.8,4.36a11.29,11.29,0,0,1,.6,1.78,1.78,1.78,0,0,0,.94,1.37,2.85,2.85,0,0,0,1.36.13c.88,0,.94.17,1.48.71a5.07,5.07,0,0,0,3.3,1,15.86,15.86,0,0,1,1.95.16,6.9,6.9,0,0,0,1.87.24c.87-.07,1.67-.33,2.56-.35a25.1,25.1,0,0,0,3.24-.15,7.62,7.62,0,0,0,3.63-1.49c.53-.41,1-.87,1.56-1.28a7.08,7.08,0,0,1,1.24-.8c.6-.29,1.22-.26,1.82-.49s1-.89,1.71-1.12a10.4,10.4,0,0,0,2-.63,3.79,3.79,0,0,1,1.9-.65c1.13-.07,2.27.07,3.4.09a17.59,17.59,0,0,0,4.89-.67A21.43,21.43,0,0,1,461.1,632c1.76,0,3.46-.32,5.21-.43a5.76,5.76,0,0,1,2.42.56,14.71,14.71,0,0,0,2.45.55,13,13,0,0,0,4.61-.33c1.72-.36,3.45-.67,5.17-1.06,3-.7,7-1,9.44-3.13a15.21,15.21,0,0,0,2.17-3.19,4.58,4.58,0,0,0,.52-3.72c-.18-.68-.67-1.17-.84-1.84s.05-1.22-.19-1.85A5,5,0,0,0,491,616c-.62-.67-1.53-.88-2.14-1.55a14.75,14.75,0,0,0-3.15-2.74,6.8,6.8,0,0,0-1.66-.67,10.48,10.48,0,0,1-2.31-1.46c-2.79-1.73-6.51-1.46-9.6-2.14-2.84-.63-6.47-.87-9.21.29-1.56.66-2.6,2-4.21,2.62a7,7,0,0,1-2.25.51c-.8,0-1.64-.2-2.44-.26-1.83-.14-3.64-.48-5.46-.7a44.24,44.24,0,0,0-5.52-.23c-3.1,0-6.74-.87-9.19,1.49-.62.6-1.13,1.3-1.73,1.91a11,11,0,0,1-2.52,1.71,13.63,13.63,0,0,0-2,1.59,12.62,12.62,0,0,1-2.33,1.42,10.5,10.5,0,0,1-2.49,1.12,14.31,14.31,0,0,0-2.47.82,12.51,12.51,0,0,0-4.18,3.32,13.62,13.62,0,0,1-1.87,1.85,3.63,3.63,0,0,0-1.28,1.44,11,11,0,0,0-.36,2.23,16.25,16.25,0,0,0-.24,2.79.63.63,0,0,0,1.25,0,18.81,18.81,0,0,1,.26-2.8,5.94,5.94,0,0,1,.31-1.89,4.69,4.69,0,0,1,1.38-1.2,16,16,0,0,0,1.72-1.86,11.07,11.07,0,0,1,3.64-2.8c1.4-.63,2.88-.78,4.23-1.53a19.32,19.32,0,0,0,3.31-2,12.93,12.93,0,0,1,2.16-1.59,10.81,10.81,0,0,0,1.87-1.2c.93-.8,1.6-1.86,2.53-2.66,1.36-1.19,3-1,4.7-.92,3.37.18,6.69,0,10.06.43,1.56.22,3.12.43,4.7.56a10.06,10.06,0,0,0,3.83-.09,8.86,8.86,0,0,0,3.42-1.76,7.58,7.58,0,0,1,4.61-1.73c3.23-.18,6.25.6,9.43,1a14.27,14.27,0,0,1,5,1.21,15.48,15.48,0,0,1,1.49,1.06,6.68,6.68,0,0,0,1.88.82,8.65,8.65,0,0,1,3.6,2.7,4.55,4.55,0,0,0,1.25,1.06,3,3,0,0,1,1.87,2.87c0,1.17.88,1.82,1.08,2.94.29,1.6-.84,3-1.61,4.31-1.65,2.82-6,2.91-8.85,3.62-1.51.37-3,.59-4.56.94a16.73,16.73,0,0,1-5.16.69,14.33,14.33,0,0,1-2.33-.46,16.6,16.6,0,0,0-2.12-.73c-1.46-.19-3,.36-4.49.42a20.19,20.19,0,0,0-4.39.37c-1.49.4-2.94.94-4.46,1.24a25,25,0,0,1-5.33.13,5.82,5.82,0,0,0-3.5.82c-.8.46-1.74.36-2.51.86-.14.08-.25.22-.38.31a6.11,6.11,0,0,1-1.74.7A10.65,10.65,0,0,0,437,637.5a8.58,8.58,0,0,1-5.7,1.61,13.55,13.55,0,0,0-2.62.2,7.73,7.73,0,0,1-2.75-.17c-1.2-.16-2.73.14-3.82-.5-.43-.26-.59-.74-1-1a3,3,0,0,0-1.67-.28c-.29,0-.81,0-1-.27s-.14-.91-.25-1.24a16.14,16.14,0,0,1-.68-1.84,8.21,8.21,0,0,0-1.86-3.92c-.55-.59-1.43.29-.89.88Z" transform="translate(-304.03 -249.77)"/><path class="cls-2" d="M502.51,615.59a11.88,11.88,0,0,1,1.3-1.35,4.74,4.74,0,0,1,1.89-.5,14.49,14.49,0,0,1,3.74-.78h3.18c.54,0,1.09,0,1.63,0,1,0,1.78.4,2.74.47,2.92.21,5.48,1.47,8.36,2.08a25,25,0,0,1,3.1.62,7.55,7.55,0,0,1,1.73,1.15,4.81,4.81,0,0,0,1.4.51c1,.31,1.63,1,2.62,1.24a36.25,36.25,0,0,0,3.86,1c1.62.28,2.19,1.65,3.52,2.55a21.83,21.83,0,0,0,4.08,2.67c1.49.53,3.29.55,4.83,1,1.28.41,2.56.81,3.8,1.32,1.44.6,3.09.49,4.42,1.17a20.09,20.09,0,0,1,3.52,2.66,5.81,5.81,0,0,1,1.75,4.41,6,6,0,0,0,1,3.82c1.06,1.42,2.89,2.22,3.84,3.76,1.33,2.18.52,4.24-.92,6.12A43.11,43.11,0,0,1,565.4,653a7.84,7.84,0,0,1-4.08,2.65,3.46,3.46,0,0,1-2.1.26c-.63-.25-.85-.9-1.46-1.19a11.81,11.81,0,0,0-2.1-.28,11.73,11.73,0,0,1-2.23-.76,10.91,10.91,0,0,1-3.33-2.2c-.78-1-.83-2.56-1.94-3.47-.42-.34-.91-.43-1.32-.78-.6-.52-.66-1.3-1.07-1.92-1-1.52-2.82-2.42-4.07-3.72-1.81-1.89-4.69-2.61-7-3.74-2.6-1.24-5.39-2.33-8-3.41-.46-.18-.94-.26-1.41-.42-.93-.3-1.52-.92-2.44-1.25-1.31-.47-2.61-1.1-4-1.52-.62-.19-1.13-.15-1.73-.29a10.75,10.75,0,0,1-1.86-.8,22.23,22.23,0,0,0-4.73-1,4.73,4.73,0,0,1-1.73-.4c-.94-.43-1.8-.86-2.79-1.23a7,7,0,0,1-3.52-2.83,7.34,7.34,0,0,1-.31-4.66c.2-.77.34-.67.26-1.47s-.91-1.89.08-2.56" transform="translate(-304.03 -249.77)"/><path class="cls-2" d="M503,616c.49-.53.91-1.22,1.63-1.47.53-.18,1.13-.18,1.67-.32a17.85,17.85,0,0,1,4.54-.66,34.9,34.9,0,0,1,9,1c1.31.35,2.6.81,3.91,1.18,1.51.43,3.38.39,4.78,1.08a15.15,15.15,0,0,1,1.38,1,7.68,7.68,0,0,0,1.56.58,18.56,18.56,0,0,1,1.78.9,12,12,0,0,0,2.12.7c1.36.37,2.95.41,4,1.36.93.81,1.77,1.62,2.77,2.36a16.14,16.14,0,0,0,3,1.94,19.66,19.66,0,0,0,4,.9,27.75,27.75,0,0,1,4.16,1.28c1.48.56,3,.71,4.5,1.2a11.07,11.07,0,0,1,3.49,2.35,5.49,5.49,0,0,1,2.06,4,10.64,10.64,0,0,0,.49,3.36,7.1,7.1,0,0,0,2.27,2.77c1.1.9,2.29,1.77,2.68,3.21.49,1.85-.66,3.37-1.67,4.79-1.69,2.39-3.24,5-6.37,5.64-.6.11-.78.47-1.6-.06-.21-.13-.35-.39-.55-.55a2.28,2.28,0,0,0-1.15-.57c-.59-.13-1.2-.07-1.8-.2a10.12,10.12,0,0,1-2.14-.77,7.29,7.29,0,0,1-3-2.12c-.65-1-.76-2.21-1.6-3.09a9.71,9.71,0,0,0-1.39-.9c-.67-.5-.74-1.25-1.16-1.92a10.39,10.39,0,0,0-2.61-2.51c-.93-.72-1.72-1.6-2.67-2.29a16.3,16.3,0,0,0-3.37-1.74c-2.79-1.16-5.51-2.45-8.31-3.58-.84-.35-1.68-.72-2.54-1a13.81,13.81,0,0,1-2.15-.78,35.6,35.6,0,0,0-4.32-1.94,10.83,10.83,0,0,0-2.37-.66,10.06,10.06,0,0,1-2.55-.9,18.33,18.33,0,0,0-4.35-.93,16.05,16.05,0,0,1-4.08-1.36c-1.52-.64-3.14-1.33-4-2.88a6.21,6.21,0,0,1-.25-4.17,4,4,0,0,0,.28-1.64c-.06-.61-.68-1.6-.09-2.12s-.29-1.42-.89-.88c-.95.84-.58,1.65-.34,2.73s-.39,2.42-.41,3.6a6.16,6.16,0,0,0,3.67,5.87,29.43,29.43,0,0,0,4.12,1.78,38.4,38.4,0,0,0,4,.65c1.5.31,2.8,1.23,4.3,1.44a20.48,20.48,0,0,1,5.18,1.72c.72.32,1.33.8,2.05,1.11s1.34.4,2,.65c1.73.67,3.46,1.39,5.16,2.13,1.42.61,2.8,1.29,4.22,1.88a21.13,21.13,0,0,1,4.17,2c1.2.85,2.3,2,3.44,2.88a6.83,6.83,0,0,1,1.55,1.58,16.41,16.41,0,0,0,.91,1.77c.5.61,1.3.74,1.84,1.31a6.22,6.22,0,0,1,1,1.94,5.09,5.09,0,0,0,2.06,2.43,14.76,14.76,0,0,0,3.53,1.71,8.54,8.54,0,0,0,1.81.36,2.16,2.16,0,0,1,1.47.41c.24.19.41.46.67.65,1.08.79,2.4.27,3.55-.11a8,8,0,0,0,3-1.86,18.91,18.91,0,0,0,2.77-3.53,11.82,11.82,0,0,0,2.21-4c.66-3.08-1.57-4.72-3.6-6.51-1.46-1.3-1.75-2.73-1.83-4.6a7.07,7.07,0,0,0-1.07-3.67,11.27,11.27,0,0,0-6.62-4.39,38.94,38.94,0,0,1-4.76-1.43A36.82,36.82,0,0,0,547.4,625c-3.06-.59-5.09-2.86-7.39-4.74-1.23-1-2.88-1.08-4.36-1.48s-3.07-1.22-4.62-1.8c-.85-.32-1.42-1.05-2.26-1.4a11.29,11.29,0,0,0-2.37-.53,45.38,45.38,0,0,1-5.46-1.47c-1.77-.52-3.55-.69-5.34-1.05a27.08,27.08,0,0,0-5.25-.19,22.58,22.58,0,0,0-4.82.8,7.67,7.67,0,0,0-1.72.39,6.73,6.73,0,0,0-1.74,1.63c-.55.58.33,1.47.89.88Z" transform="translate(-304.03 -249.77)"/><path class="cls-2" d="M480.79,674.41c-1.26,1.18-3.37.93-5,1.43A37,37,0,0,0,472,677c-1.71.77-2.21,1.17-2.65,3a6.19,6.19,0,0,1-2.81,4.31c-.95.63-4.21,1.33-3.66,2.7s3.2,2.49,4.29,3.22c1.89,1.26,4.66,1.26,6.87,1.33s4.57.06,6.82,0c.46,0,1.73-.49,2.06-.31.11,1.22-.83,3.15-1.37,4.24-.37.74-.7,1.48-1.06,2.22-.44.91-.56,2.07-1.44,2.64s-1.44.69-1.74,1.63a23.62,23.62,0,0,0-.14,2.4,15.52,15.52,0,0,1-.68,2.23c-.33.94-.44,2-.79,2.89-.77,2-2.08,3.24-4.18,2.94-1.73-.25-3.5-.47-5.21-.8-.92-.18-1.77-.64-2.67-.79a24.44,24.44,0,0,0-3.92,0,32.5,32.5,0,0,1-5.07-.48c-.8-.12-1.51-.55-2.29-.74a12,12,0,0,1-2.77-.63,12.33,12.33,0,0,1-4.62-3.43c-.52-.71-1-1.52-1.56-2.18-.95-1.13-2.38-1.4-3.67-2-1.82-.83-3.31-2.16-5.15-2.95a25.25,25.25,0,0,1-4.62-2.54c-1.72-1.19-3.24-2.54-5-3.72-1.35-.92-1.88-2.29-2.82-3.56a10.7,10.7,0,0,0-4.59-3.91,9.23,9.23,0,0,1-4-3.25A7.47,7.47,0,0,0,412.2,680a6.06,6.06,0,0,1-1.52-2.44,6.84,6.84,0,0,0-2.84-3.27c-1.59-.84-3-1.42-2.53-3.42.35-1.6,2.12-2.37,3.27-3.28.64-.5,1.39-1,2-1.53a20.35,20.35,0,0,0,1.71-2.21c1.19-1.39,2.75-2.18,3.06-4.13a5.79,5.79,0,0,0-.83-4.56c-.5-.64-1.14-1-1.31-1.84a10.22,10.22,0,0,1,0-2.07,16.66,16.66,0,0,0-.19-4.52c-.5-1.72-2.22-2.27-3.72-2.9a21.25,21.25,0,0,1-4.43-2.59,11.25,11.25,0,0,1-2-1.62c-.53-.6-1-1.32-1.52-1.89-1.69-1.72-4-2.49-5.72-4.15-1.31-1.28-2.8-2.55-4-3.94s-2.14-3.48-3.35-5c-.65-.83-1.73-1.54-2.48-2.36a10.71,10.71,0,0,0-2.1-2.1c-1.55-1-3.59-1.17-5.25-1.93s-2.08-2.22-2.91-3.62c-1.19-2-3.24-3.44-4.88-5.08a24.77,24.77,0,0,1-3.18-3.7c-.88-1.36-.77-2.86-1.28-4.32a24.69,24.69,0,0,0-2.45-5.26c-1.16-1.8-3.1-2.38-3.62-4.69-.18-.79,0-1.55-.12-2.33s-.6-1.35-.76-2.08a20.16,20.16,0,0,1-.53-4.37c0-1.71-.42-3.27-.45-4.95s0-3.34,0-5a7.11,7.11,0,0,0-.07-2c-.2-.72-.71-1.25-.88-2a5.83,5.83,0,0,1,.1-1.86,8,8,0,0,0-.58-2.77,20.61,20.61,0,0,0-1.53-3.91c-.42-.81-.39-1.68-1.47-1.76s-2,1.48-2.19,2.51a41.44,41.44,0,0,0,0,5.57,31.4,31.4,0,0,0,.64,6.84,21.87,21.87,0,0,1,.7,2.73,16.48,16.48,0,0,0,.19,2.53c.47,2-.58,3.68-.6,5.75a17.86,17.86,0,0,0,.22,3.58c.17.8,0,1.4.17,2.2a37,37,0,0,1,0,5.67c0,3.38,1.33,7.23,1.79,10.58a18.21,18.21,0,0,1,.41,3,9,9,0,0,0,.21,2.37c.5,2.14.22,4.42.66,6.62.39,2,.2,3.9.54,5.84s.85,3.9,1.2,5.87.57,4.12,1,6.14c.3,1.42,1,2.7,1.34,4.12a22.88,22.88,0,0,0,.64,2.29,13.54,13.54,0,0,0,1.65,2.76c1,1.65,2.1,3.17,3.06,4.84,1.07,1.85,1.86,3.79,2.87,5.68a28.34,28.34,0,0,1,2.33,4.95,25.82,25.82,0,0,0,2.19,5.28c1.93,3.44,2.55,7.43,5.56,10.21,1.68,1.55,2.94,3.55,4.58,5.19q2.12,2.1,4.21,4.21a44.94,44.94,0,0,1,3.84,4c.63.8,1.54,1.29,2.05,2.14a26.91,26.91,0,0,0,2.21,3.35c1.19,1.48,2,3.23,3.32,4.6,1.52,1.57,2.83,3.27,4.39,4.81,2.23,2.23,4.08,4.69,6.17,7a69.75,69.75,0,0,0,8.67,7.71,54.25,54.25,0,0,0,7,4.92c1.2.67,2.22,1.48,3.35,2.25,1.39.94,3,1.36,4.35,2.42,1.82,1.46,1.92,3.5,4,4.62,1.78,1,4.47,3.63,6.38,4.41s6,2.62,7.93,3.52c4,1.82,6.68.27,10.62,2.13,2.14,1,4.62,1.32,6.82,2.25a54.35,54.35,0,0,0,10.69,3.57,17,17,0,0,0,6.36,0,23.6,23.6,0,0,1,2.38,0c.91-.06,1.83-.33,2.73-.45a21.63,21.63,0,0,1,4.83-.48c1.93.15,3.73.47,5.68.47s3.76,0,5.63,0a37.69,37.69,0,0,0,5.35-.94,16,16,0,0,0,3.47-1.07c.78-.3,1.61-.32,2.39-.62,1.67-.64,2.86-1.53,4.71-1.77a40.61,40.61,0,0,0,11.32-3.49,18.49,18.49,0,0,0,2.61-1.78c1-.69,2-1.11,3-1.73a47.71,47.71,0,0,0,6.25-4.67c6.1-5.53,14.47-7.62,20.75-13,1.69-1.47,3.65-2.49,5.34-3.9,1.09-.9,2-2,3.13-2.83a17.17,17.17,0,0,0,2.6-2.15c1.85-1.87,3.81-3.47,5.51-5.47a37.45,37.45,0,0,1,4.72-4.35,7.86,7.86,0,0,0,1.63-1.35c.54-.72,1-1.51,1.54-2.23a47.73,47.73,0,0,0,3-4.78c1-1.75,2.36-3.22,3.45-4.88a12.5,12.5,0,0,0,.61-1.41,12.65,12.65,0,0,1,2.18-3,48.17,48.17,0,0,0,5.08-6.2c1.67-2.42,2.89-5.34,5-7.47,2.82-2.9,4.52-6.7,6.78-10.05,1-1.55,1.76-3.32,2.84-4.82a19.21,19.21,0,0,0,2.43-4.56c1.22-3.4,2.9-6.51,3.74-10s1.16-6.85,2-10.25a39.1,39.1,0,0,0,1.14-4.6c.22-1.9.83-3.74,1.22-5.61.92-4.45,2.49-8.71,3.22-13.22.44-2.7,1.25-5.54.75-8.34a8.62,8.62,0,0,0-.72-1.86c-.36-.79-.29-1.36-1.2-1s-1.29,1.45-1.68,2.12a11.27,11.27,0,0,1-1.64,2c-.71.81-.72,1.72-1.28,2.58-.4.6-1,.88-1.26,1.58-.72,1.77-.78,3.77-1.4,5.56-.53,1.54-.59,3.16-1,4.78-.51,2-.33,4.14-.78,6.14-.2.87-.83,1.29-1.39,2a13,13,0,0,0-1.71,2.71c-.8,1.64-1.64,3.34-2.59,4.89a20.69,20.69,0,0,1-4.29,4.53,30.81,30.81,0,0,1-6.13,4.34c-1.07.55-1.74,1.49-2.82,2.06-1.61.84-3.45.93-5.08,1.58s-2.26,2.69-2.74,4.34A9,9,0,0,1,594,651c-.72.73-1.08,1.62-1.73,2.4a11.67,11.67,0,0,1-2.42,1.83,28.84,28.84,0,0,0-4.63,3.42c-1.47,1.51-3.48,2.28-4.86,3.85-1,1.09-2,2.14-3,3.17-1.34,1.31-3.09,2.21-4.18,3.8-1.33,1.93-2.33,4.05-3.47,6.08a10,10,0,0,0-.8,2.77,3.2,3.2,0,0,0,0,2.18,9.77,9.77,0,0,1-.72,5.56c-.69,1.72-2,3-3.12,4.44-.94,1.29-1.68,2.82-2.64,4.07-.57.75-1.52,1-2.22,1.64s-1.46,1.61-2.18,2.37a32.93,32.93,0,0,1-4.62,4.6,10.75,10.75,0,0,1-2.72,1.09,20.79,20.79,0,0,0-3.43,1.81c-2.54,1.55-5.18,2.7-6.88,5.22-1.4,2.08-3.81,2.92-6.16,3.66-2.6.81-4.52-.59-6.94-1.46-1.5-.54-3.62-1.78-5.23-1.79-.91,0-1.72.51-2.65.52a3.69,3.69,0,0,1-2.38-.89,32.31,32.31,0,0,1-5.73-4.57c-1.53-1.62-1.12-4-1.11-6.08a17.44,17.44,0,0,0-.23-2.73,4,4,0,0,1,.35-2.11c.61-1.87,1-4,2.47-5.52.66-.68,1.84-.73,2.34-1.57.79-1.36-.44-3-1.14-4a42.31,42.31,0,0,0-2.86-3.25c-.93-1.1-1-1.89-2.44-2.51-2.65-1.09-5.75-1.09-8.57-1.07a20.29,20.29,0,0,1-8.31-1.48c-2-.84-3.76-2-5.82-2.7-1.35-.48-4.93-2.16-5.49.17l.3.06" transform="translate(-304.03 -249.77)"/><path class="cls-2" d="M480.35,674c-1.38,1.13-3.74,1-5.41,1.5a14,14,0,0,0-4.72,1.84,4.87,4.87,0,0,0-1.55,2.93,5.63,5.63,0,0,1-2.91,3.79c-1.51.74-4.79,1.67-3,3.91a12,12,0,0,0,3.51,2.45,10.81,10.81,0,0,0,4.29,1.58,50.51,50.51,0,0,0,6.39.26c1.22,0,2.46,0,3.68-.05.64,0,1.55-.49,2.15-.35l-.46-.6c.05,1.89-1.24,3.82-2,5.48-.38.79-.61,1.7-1,2.46s-1.44,1-2,1.7a3,3,0,0,0-.62,1.8,13,13,0,0,1-.63,3.54c-.6,1.79-.7,4.29-2.57,5.31-1,.55-2.19.23-3.27.08s-2.45-.31-3.65-.59c-.93-.21-1.8-.64-2.75-.8a16.34,16.34,0,0,0-3.28,0,18.81,18.81,0,0,1-7-.86c-1-.36-2-.39-3-.69A11.16,11.16,0,0,1,447.4,707c-1.76-1.27-2.49-3.34-4.15-4.65-1.39-1.09-3.27-1.45-4.78-2.37-1.81-1.11-3.64-2-5.52-3a39.75,39.75,0,0,1-5.81-4,10.57,10.57,0,0,1-4.27-4.48,13.37,13.37,0,0,0-3.2-3.34c-1.6-1.1-3.47-1.63-4.82-3.11a26.05,26.05,0,0,0-1.73-2,6.44,6.44,0,0,1-1.67-2.21,8.18,8.18,0,0,0-3.3-4,5.61,5.61,0,0,1-2-1.35c-.76-1.12.15-2.35,1-3,1.49-1.16,3.29-2,4.47-3.55a21.74,21.74,0,0,1,1.76-2.2,16.8,16.8,0,0,0,1.71-1.77,6.21,6.21,0,0,0,.94-4.37,5.53,5.53,0,0,0-.74-2.26c-.59-1-1.53-1.46-1.54-2.7,0-1.89.36-3.86-.12-5.72a4.66,4.66,0,0,0-3-3,29.34,29.34,0,0,1-5.66-3.16c-1.67-1.23-2.67-3-4.33-4.26a53.33,53.33,0,0,1-4.94-3.52,28,28,0,0,1-4.72-5.18,20.34,20.34,0,0,0-3.44-4.63c-1.36-1.19-2.41-2.86-4.06-3.68s-4.13-.87-5.56-2.19c-1.28-1.18-1.81-3-2.95-4.36-1.32-1.52-2.95-2.74-4.35-4.18a21.14,21.14,0,0,1-2.32-2.68,8.32,8.32,0,0,1-1.14-3.24A20.61,20.61,0,0,0,365,597a18.94,18.94,0,0,0-3.13-3.67c-1.43-1.57-.91-3.68-1.66-5.56-.85-2.15-.62-4.46-.88-6.71a54.37,54.37,0,0,1-.34-7.1,14.69,14.69,0,0,0,0-3c-.25-1.22-1-2-.87-3.35.22-1.92-.59-3.95-1.29-5.72-.33-.83-.74-1.62-1.09-2.45a2.18,2.18,0,0,0-.95-1.25,2.32,2.32,0,0,0-2.94,1.07c-.95,1.43-.82,3.26-.75,4.89.11,2.23.07,4.48.31,6.71s1.07,4.24,1.18,6.41a20.33,20.33,0,0,1,.22,3.2c-.11,1-.46,2-.59,3.05a30.62,30.62,0,0,0,.24,5.9c.13,2.21.05,4.35.06,6.56a29.66,29.66,0,0,0,.91,6.2,47.92,47.92,0,0,1,1.28,6.82c.17,2.23.49,4.44.6,6.68s.47,4.71.64,7.07a58.8,58.8,0,0,0,1.25,6.82c.44,2.22.63,4.48,1.1,6.7a21.1,21.1,0,0,0,1,3c.37,1.06.58,2.16.92,3.22.62,2,2,3.65,3.12,5.35a54.82,54.82,0,0,1,3.49,6.16c1,2.15,2.35,4.21,3.2,6.45a48.7,48.7,0,0,0,2.26,5.73c1.73,3.26,2.66,7.13,5.12,10,3,3.45,6.14,6.77,9.38,10,1.56,1.56,3,3.26,4.62,4.79s2.41,3.22,3.67,4.87,2.35,3.55,3.83,5.14,3,3.37,4.61,5c3.2,3.37,5.9,7.08,9.42,10.15a86.24,86.24,0,0,0,10.31,8c1.87,1.18,3.72,2.56,5.66,3.63s3.7,1.68,5,3.69a9.25,9.25,0,0,0,3.1,3.21c1.48,1,2.77,2.16,4.22,3.14a24.44,24.44,0,0,0,4.15,2c1.54.68,3.06,1.38,4.59,2.07a14.74,14.74,0,0,0,5,1.43c2.25.19,4.33.17,6.45,1.08,1.91.82,3.9,1.24,5.86,1.89,2.24.76,4.38,1.81,6.62,2.58a32.66,32.66,0,0,0,6.37,1.6c2.23.28,4.33-.28,6.53-.22a35,35,0,0,0,6-.75c2.4-.36,4.71.12,7.11.27a41.63,41.63,0,0,0,13.58-1.15c1-.26,1.86-.71,2.82-1a18.47,18.47,0,0,0,2.72-.81,23,23,0,0,1,2.95-1.24c1.05-.28,2.16-.36,3.22-.59a29.58,29.58,0,0,0,11.45-4.67c1.76-1.29,3.76-2.21,5.55-3.48s3.26-2.54,4.85-3.88c3.15-2.65,6.88-4.49,10.51-6.38,1.81-.95,3.62-1.91,5.36-3a60.71,60.71,0,0,0,4.93-3.63,61.64,61.64,0,0,0,5.3-3.94c1.5-1.41,3.18-2.58,4.68-4,3.32-3.14,6.31-6.65,9.83-9.56a20.52,20.52,0,0,0,2.24-1.8,27.36,27.36,0,0,0,1.65-2.34c1.34-1.88,2.44-3.9,3.71-5.82,1.15-1.74,2.59-3.23,3.42-5.15.91-2.11,2.75-3.64,4.22-5.35a43.6,43.6,0,0,0,3.64-4.83c1.09-1.71,2-3.56,3.19-5.19s2.72-3.09,3.89-4.82,2.18-3.61,3.29-5.4,2.21-3.91,3.44-5.78A25.7,25.7,0,0,0,623,650.7c.82-2.14,1.76-4.24,2.58-6.38a38.08,38.08,0,0,0,1.81-6.9c.44-2.41.77-4.86,1.37-7.25.54-2.14,1-4.26,1.45-6.42,1-4.51,2.31-8.94,3.39-13.43.55-2.29,1-4.63,1.33-7,.31-2,.56-4.2-.23-6.09-.39-.92-.7-2.6-2-2.38-1.54.24-2,2.11-2.85,3.17a17.42,17.42,0,0,0-1.65,2.09,12.32,12.32,0,0,1-1.52,2.63c-1.18,1.39-1.25,3.44-1.64,5.15-.48,2.14-1,4.26-1.43,6.41s.1,5.29-1.39,6.95c-2.9,3.25-3.85,7.72-7,10.8a45.33,45.33,0,0,1-5,4.21c-1.6,1.16-3.37,2-4.89,3.24-1.86,1.52-4.11,1.43-6.2,2.38a5.11,5.11,0,0,0-2.57,3.19,12.93,12.93,0,0,1-2.62,5.07,13.49,13.49,0,0,0-1.53,2,8.38,8.38,0,0,1-2.64,2.35A33.68,33.68,0,0,0,585,658c-1.46,1.38-3.3,2.28-4.72,3.69a57.64,57.64,0,0,1-4.49,4.49,15.16,15.16,0,0,0-3.94,4.2c-1.84,3-4.18,6.56-3.52,10.24.87,4.84-2.92,8-5.21,11.78a7.22,7.22,0,0,1-2.21,2.57,9.52,9.52,0,0,0-2.07,1.73c-1.38,1.55-2.71,3.17-4.2,4.61a7.75,7.75,0,0,1-2.87,1.93,18.85,18.85,0,0,0-2.7,1c-1.75.89-3.45,2-5.12,3a14.15,14.15,0,0,0-3.95,3.48,10.15,10.15,0,0,1-5.5,3.42c-4.11,1.3-7.64-2.33-11.54-3a4.89,4.89,0,0,0-2.15.12,3.52,3.52,0,0,1-3.27-.39,32.63,32.63,0,0,1-5.28-4.08c-1.68-1.65-1.47-3.57-1.43-5.75a21,21,0,0,0-.17-2.75,7.84,7.84,0,0,1,.59-3.34,16.09,16.09,0,0,1,1.08-2.93,5.06,5.06,0,0,1,2.34-2.07,2.64,2.64,0,0,0,1.11-3.39,13.71,13.71,0,0,0-3.23-4.44c-1-1.1-1.78-2.72-3.14-3.48-3.66-2-8.32-1.06-12.29-1.48-4.24-.46-7.69-2.8-11.59-4.26-1.83-.69-4.81-1.71-5.62.84a.62.62,0,0,0,.43.77l.3.06c.79.16,1.12-1.05.33-1.21l-.3-.05.44.76c.78-2.42,8.16,1.87,9.27,2.4,3.89,1.85,7.68,2,11.91,2.08,2.08,0,5.28,0,7,1.49a9.7,9.7,0,0,1,1.18,1.58c.67.87,1.49,1.6,2.21,2.43a12.26,12.26,0,0,1,1.66,2.32,1.85,1.85,0,0,1,0,2.26,5.19,5.19,0,0,1-1.26.71,6.81,6.81,0,0,0-2.55,3.81,11.86,11.86,0,0,0-1.08,5.3c.22,1.88,0,3.74.15,5.6.39,3.66,4.34,6,7.15,7.78a4.64,4.64,0,0,0,4.2.7c2.05-.51,3.68.49,5.54,1.26a23.38,23.38,0,0,0,5.34,1.93,9.83,9.83,0,0,0,5.14-1.1,9.12,9.12,0,0,0,3.87-2.86,15.12,15.12,0,0,1,4.69-4,33,33,0,0,1,5.79-3.12,10.53,10.53,0,0,0,4.38-2.65c1.43-1.41,2.71-3,4-4.45s2.8-2,3.83-3.53c1.23-1.83,2.39-3.6,3.75-5.35a11.21,11.21,0,0,0,2.25-5c.32-1.85-.38-3.66,0-5.45a22.61,22.61,0,0,1,2.6-5.92,15.06,15.06,0,0,1,4-4.85,35.37,35.37,0,0,0,4.37-4.2c1.33-1.46,3-2.34,4.52-3.6a56.76,56.76,0,0,1,5.34-4,16,16,0,0,0,1.91-1.34,12.24,12.24,0,0,0,1.63-2.16c1-1.46,2.36-2.51,3-4.22s.78-3.79,2.44-4.72,4-.84,5.81-2c.73-.47,1.31-1.13,2-1.61.91-.59,1.91-1.05,2.81-1.67a45.26,45.26,0,0,0,4.56-3.62,18.79,18.79,0,0,0,4-4.67c1.07-1.84,1.86-3.84,3-5.65a27.18,27.18,0,0,1,1.77-2.21,4.46,4.46,0,0,0,.81-2.3c.15-1.05.18-2.11.29-3.17.12-1.29.46-2.54.68-3.81.34-2.06,1-4.06,1.38-6.1a6.41,6.41,0,0,1,1.21-3,7.14,7.14,0,0,0,1.21-2,10.85,10.85,0,0,1,1.79-2.53c.48-.64.76-1.39,1.24-2,.1-.14.6-.82.77-.75s.18.46.21.53c.16.39.35.77.5,1.16a8.71,8.71,0,0,1,.34,4.12,88.56,88.56,0,0,1-3,13.65c-.62,2.28-1.11,4.58-1.67,6.86-.52,2.1-.78,4.21-1.38,6.29-1.28,4.47-1.46,9.19-2.9,13.61-.71,2.19-1.68,4.27-2.53,6.39a29.64,29.64,0,0,1-2.88,5.91c-1.23,1.79-2.17,3.76-3.36,5.59s-2.15,3.63-3.28,5.4a56.56,56.56,0,0,1-3.9,4.95,38.91,38.91,0,0,0-3,4.7,40.3,40.3,0,0,1-3.82,5.35,55,55,0,0,0-4,4.71,19.05,19.05,0,0,0-1.06,2.12,20.49,20.49,0,0,1-2,2.88c-1.33,1.78-2.34,3.73-3.56,5.58-.58.88-1.22,1.71-1.81,2.59a9.83,9.83,0,0,1-2.3,2.34,36.72,36.72,0,0,0-4.72,4.35c-1.49,1.68-3.16,3.17-4.77,4.73s-3.25,2.65-4.77,4.1a47.73,47.73,0,0,1-5.5,4.32c-1.67,1.19-3.18,2.56-4.9,3.68-3.38,2.19-7.06,3.84-10.57,5.81a42.92,42.92,0,0,0-5,3.18c-1.64,1.25-3.11,2.68-4.77,3.91A59.91,59.91,0,0,1,537,738.3c-.88.51-1.64,1.17-2.48,1.73a16.08,16.08,0,0,1-3.15,1.53,40.92,40.92,0,0,1-6,1.92,28.93,28.93,0,0,0-5.54,1.36,61.45,61.45,0,0,1-6.23,2.22,28.56,28.56,0,0,1-6.45,1.33,61.43,61.43,0,0,1-7.18,0c-2.2-.11-4.39-.61-6.6-.39s-4.21.93-6.31.88-4.15.46-6.26.28c-4.86-.43-9.08-2.81-13.63-4.29-2-.65-4-1.17-6-2a16.23,16.23,0,0,0-5.4-.9c-3.83-.2-7.08-2.12-10.53-3.63a20.47,20.47,0,0,1-3.93-2c-1.37-1-2.63-2.1-4-3a6.15,6.15,0,0,1-2-1.89,22.28,22.28,0,0,0-1.32-2c-1.21-1.47-3-2-4.56-2.92-1.87-1-3.63-2.37-5.45-3.5a62.77,62.77,0,0,1-5.58-4,67.94,67.94,0,0,1-9.86-9.09c-2.93-3.44-5.95-6.79-9-10.1-2.79-3-4.39-7-7.34-9.83-1.52-1.46-2.92-3.1-4.42-4.59-1.7-1.69-3.48-3.33-5.06-5.12-1.41-1.6-2.75-3.21-4.22-4.76a16.56,16.56,0,0,1-3-5.3c-.73-1.77-1.54-3.45-2.4-5.16-.95-1.89-1.43-3.92-2.26-5.84s-2-3.93-3-5.91a54.82,54.82,0,0,0-3.49-6.16c-1.19-1.82-2.61-3.62-3.2-5.73s-1.39-4-1.78-6c-.41-2.24-.64-4.5-1.1-6.73a50.61,50.61,0,0,1-1.18-7.53c-.12-2.27-.48-4.5-.62-6.77a26.41,26.41,0,0,0-.39-2.93c-.17-1-.07-2.09-.22-3.13-.62-4.36-2.24-8.7-2.1-13.13.06-2.16.05-4.27-.1-6.43s-.5-4,0-6.12a15.72,15.72,0,0,0,.45-2.54c.05-1.11-.22-2.23-.27-3.35-.11-2.08-1-4.06-1.19-6.15s-.18-4.32-.29-6.47a10.55,10.55,0,0,1,.14-3.32,2.4,2.4,0,0,1,.61-1.13,1.53,1.53,0,0,1,1.32-.18c.14.08.26.64.32.77a26.41,26.41,0,0,1,2.12,5.89c.16,1-.21,1.87,0,2.81.24,1.14.95,1.91,1,3.14,0,2.33-.19,4.69.06,7,.22,2.1.26,4.24.56,6.32a11.32,11.32,0,0,0,.65,2.76,10.76,10.76,0,0,1,.51,3.1,5.86,5.86,0,0,0,2.17,3.63A13.41,13.41,0,0,1,365,600a16.51,16.51,0,0,1,.95,2.83,12.79,12.79,0,0,0,.72,2.75c1.7,3.7,5.74,5.64,8,8.86.95,1.32,1.44,3,2.8,4,1.52,1.11,3.53,1.17,5.2,1.94s2.95,2.62,4.32,3.88c1.6,1.46,2.43,3.52,3.7,5.24a36.17,36.17,0,0,0,4.31,4.44,37.76,37.76,0,0,0,4.48,3.17c1.66,1.15,2.58,2.94,4.18,4.14a26.86,26.86,0,0,0,5.44,3.28,11.29,11.29,0,0,1,2.24,1.08c1.15.83,1.27,2.16,1.27,3.47,0,1.55-.5,3.58.17,5,.36.77,1.14,1.26,1.55,2a5.51,5.51,0,0,1,.37,3.73c-.42,1.76-2.16,2.71-3.2,4.08a11.63,11.63,0,0,1-2.44,2.61c-.7.53-1.42,1-2.14,1.54a4.57,4.57,0,0,0-2.3,3.21,3,3,0,0,0,1.62,2.93,17.06,17.06,0,0,1,2.2,1.35,7.72,7.72,0,0,1,1.85,2.76c.72,1.61,2,2.5,3,3.87a11,11,0,0,0,4.18,3.22,11,11,0,0,1,4,3.33c1,1.33,1.72,2.88,3.08,3.92,1.75,1.34,3.51,2.74,5.34,4s3.77,2,5.64,3a37.87,37.87,0,0,0,4.86,2.71,6,6,0,0,1,2.83,1.79c.57.72,1,1.53,1.61,2.24a10.68,10.68,0,0,0,7.16,3.82c1.13.25,2.14.74,3.3.91a32.69,32.69,0,0,0,6.17.31c2.35-.11,4.48.82,6.79,1.18,1.61.24,3.61.85,5.21.29a4.9,4.9,0,0,0,2.66-2.72,16.68,16.68,0,0,0,.79-2.67c.24-.92.64-1.8.84-2.73.23-1.1-.21-2.51.74-3.34.54-.47,1.16-.62,1.61-1.23a8,8,0,0,0,.85-1.89c.38-.95.86-1.87,1.31-2.79a9.59,9.59,0,0,0,1.31-4.27.65.65,0,0,0-.46-.61,4.28,4.28,0,0,0-1.77.2A19.51,19.51,0,0,1,478,691a65.22,65.22,0,0,1-6.85-.19,12.58,12.58,0,0,1-5.34-2.1c-.58-.34-2.11-1-2.25-1.75s1.23-1.16,1.77-1.39a7.53,7.53,0,0,0,3.24-2.21,6.9,6.9,0,0,0,1.08-2,11,11,0,0,1,.81-2.47c1-1.58,3.89-2,5.55-2.39,1.81-.48,3.7-.36,5.22-1.6.62-.51-.27-1.39-.88-.89Z" transform="translate(-304.03 -249.77)"/></svg>