<svg id="Ebene_1" data-name="Ebene 1" xmlns="http://www.w3.org/2000/svg" viewBox="0 0 59.94 59.94"><defs><style>.cls-1{fill:#fff;}.cls-2{fill:#e30613;}</style></defs><path class="cls-1" d="M59.86,59.86H-.08V-.08H59.86ZM31.5,46.63h0V46.2c0-10.76,0-21.53,0-32.3a9.81,9.81,0,0,1,2.63-7A6.58,6.58,0,0,1,39,4.73c5.21,0,10.42,0,15.64,0H55c0,.52,0,1,0,1.46.12,2.2.26,4.4.4,6.6l.3,5.09c.14,2.21.27,4.42.41,6.63l.3,5c.13,2.22.27,4.45.4,6.67.1,1.59.2,3.18.29,4.76,0,.25.12.27.33.2,0-.13,0-.25,0-.36l-.21-3.53c-.13-2.16-.25-4.31-.38-6.47l-.54-8.86-.45-7.37c-.18-3-.33-5.94-.56-8.9a2.61,2.61,0,0,1,.61-2.06,9.08,9.08,0,0,0,.63-1h-.5c-4.41,0-8.83,0-13.24,0-1.56,0-3.12.08-4.69.12a5.67,5.67,0,0,0-2.52.74,8.23,8.23,0,0,0-3.35,3.24L31.48,8.1c-.11-2.89,0-5.66,1.79-8.1H31.72a.46.46,0,0,0-.3.13,18.61,18.61,0,0,0-1.33,1.74A11.88,11.88,0,0,0,28.52,7c0,.37-.07.75-.11,1.17-.38-.44-.69-.84-1-1.21a6.47,6.47,0,0,0-4.9-2.18c-5.26,0-10.53,0-15.79,0H6.25v.34h14.4a7.86,7.86,0,0,1,3.17.62,8.07,8.07,0,0,1,3.5,3c.38.57.71,1.18,1.11,1.84V8.3l.11.12.13.21a11.35,11.35,0,0,1,1.4,5.76q0,16,0,32.06c0,.1,0,.2,0,.31a.59.59,0,0,1-.14-.3,8.3,8.3,0,0,0-1.53-3.09,5.38,5.38,0,0,0-3.24-2,7.52,7.52,0,0,0-1.34-.06q-9.42,0-18.83,0c-1,0-1,0-1-1.06.15-2.09.28-4.19.4-6.28.11-1.73.21-3.46.31-5.19Q5,25,5.21,21.3c.13-2.22.25-4.43.38-6.64C5.76,11.82,6,9,6.13,6.15c0-.33,0-.67,0-1H3.32L.85,45.8H22.23a4.58,4.58,0,0,1,2.36.53A5.11,5.11,0,0,1,27,49.66c.15.66.23,1.34.34,2H31c0-.1,0-.18,0-.26a7.23,7.23,0,0,1,.71-3,4.35,4.35,0,0,1,3.79-2.65c.26,0,.52,0,.78,0h20.6l.53,0-.27-4.46H37.7l-.91,0a4,4,0,0,0-1.87.54,6.17,6.17,0,0,0-2.71,3C31.93,45.4,31.73,46,31.5,46.63Z" transform="translate(0.08 0.08)"/><path class="cls-2" d="M32.35,50.79c.23-.61.43-1.23.71-1.82A6.21,6.21,0,0,1,35.77,46a4,4,0,0,1,1.86-.54l.92,0H58l.27,4.46-.53,0H37.11l-.78,0a4.53,4.53,0,0,0-4,3.15,7.13,7.13,0,0,0-.48,2.46c0,.08,0,.16,0,.27H28.17c-.12-.69-.19-1.37-.35-2a5.06,5.06,0,0,0-2.46-3.39A4.17,4.17,0,0,0,23.3,50H1.7L4.11,10.22l1-.94H7c0,.35,0,.69,0,1-.18,2.83-.37,5.67-.54,8.5-.13,2.21-.25,4.43-.38,6.64-.15,2.49-.31,5-.47,7.48-.1,1.73-.2,3.46-.31,5.19-.13,2.1-.25,4.19-.4,6.28-.07,1.06-.09,1.06,1,1.06H24.66a7.53,7.53,0,0,1,1.34.07,5.42,5.42,0,0,1,3.24,2,8.13,8.13,0,0,1,1.52,3.09.71.71,0,0,0,.15.3c0-.1,0-.21,0-.31q0-16,0-32.06a11.4,11.4,0,0,0-1.4-5.76l-.13-.21-.11-.12v2.2c-.4-.65-.73-1.27-1.12-1.84a8,8,0,0,0-3.49-3,7.86,7.86,0,0,0-3.17-.62H7.1V8.9h.43c5.26,0,10.52,0,15.78,0a6.51,6.51,0,0,1,4.91,2.18c.35.37.66.77,1,1.21,0-.42.07-.79.11-1.17A11.92,11.92,0,0,1,30.94,6,17.26,17.26,0,0,1,32.27,4.3a.4.4,0,0,1,.26-.14h1.59c-1.79,2.43-1.9,5.21-1.79,8.09h0c.33-.58.61-1.09.92-1.61a8,8,0,0,1,3-2.86A6,6,0,0,1,39,6.91c1.56,0,3.13-.11,4.69-.12H57.4a8.89,8.89,0,0,1-.63,1,2.61,2.61,0,0,0-.61,2.07c.23,3,.38,5.92.56,8.89l.45,7.38L57.71,35c.13,2.15.25,4.31.38,6.46l.21,3.53v.36c-.21.08-.32.05-.33-.19-.09-1.59-.19-3.18-.29-4.77-.13-2.22-.27-4.45-.4-6.67l-.3-5c-.14-2.21-.28-4.43-.41-6.64l-.3-5.08c-.14-2.2-.28-4.4-.4-6.6,0-.47,0-.94,0-1.47h-.34c-5.1,0-10.2,0-15.3,0A7.24,7.24,0,0,0,35,11a9.9,9.9,0,0,0-2.67,7c0,10.77,0,21.54,0,32.31v.43Z" transform="translate(0.08 0.08)"/></svg>